<?xml version="1.0" encoding="UTF-8"?>
<!DOCTYPE svg PUBLIC "-//W3C//DTD SVG 1.1//EN" "http://www.w3.org/Graphics/SVG/1.1/DTD/svg11.dtd">
<svg xmlns="http://www.w3.org/2000/svg" version="1.1" width="809px" height="405px" style="shape-rendering:geometricPrecision; text-rendering:geometricPrecision; image-rendering:optimizeQuality; fill-rule:evenodd; clip-rule:evenodd" xmlns:xlink="http://www.w3.org/1999/xlink">
<g><path style="opacity:0.998" fill="#0a0a0a" d="M 103.5,4.5 C 103.989,5.99522 104.655,7.32855 105.5,8.5C 107.875,13.9526 109.875,19.6193 111.5,25.5C 112.192,29.8911 113.192,34.2245 114.5,38.5C 112.481,39.9334 110.314,41.2668 108,42.5C 104.312,37.7815 101.145,32.7815 98.5,27.5C 98.9118,25.0274 97.9118,23.6941 95.5,23.5C 91.7231,17.2163 87.7231,11.0496 83.5,5C 90.1583,4.50042 96.825,4.33375 103.5,4.5 Z"/></g>
<g><path style="opacity:0.871" fill="#4d4d4d" d="M 103.5,4.5 C 105.176,5.18342 105.843,6.51676 105.5,8.5C 104.655,7.32855 103.989,5.99522 103.5,4.5 Z"/></g>
<g><path style="opacity:1" fill="#3b3b3b" d="M 95.5,23.5 C 97.9118,23.6941 98.9118,25.0274 98.5,27.5C 97.0256,26.5637 96.0256,25.2303 95.5,23.5 Z"/></g>
<g><path style="opacity:1" fill="#3d3d3d" d="M 111.5,25.5 C 113.049,29.2907 114.716,33.124 116.5,37C 115.956,37.7172 115.289,38.2172 114.5,38.5C 113.192,34.2245 112.192,29.8911 111.5,25.5 Z"/></g>
<g><path style="opacity:0.788" fill="#484848" d="M 199.5,47.5 C 204.167,46.1667 208.833,46.1667 213.5,47.5C 209.042,47.8085 204.375,47.8085 199.5,47.5 Z"/></g>
<g><path style="opacity:0.788" fill="#494949" d="M 349.5,47.5 C 343.157,47.5647 336.824,47.5647 330.5,47.5C 336.734,46.1927 343.068,46.1927 349.5,47.5 Z"/></g>
<g><path style="opacity:0.788" fill="#4a4a4a" d="M 579.5,47.5 C 573.514,47.558 567.514,47.558 561.5,47.5C 567.599,46.1943 573.599,46.1943 579.5,47.5 Z"/></g>
<g><path style="opacity:0.997" fill="#070707" d="M 199.5,47.5 C 204.375,47.8085 209.042,47.8085 213.5,47.5C 214.833,47.5 216.167,47.5 217.5,47.5C 217.711,49.4241 218.377,49.7574 219.5,48.5C 222.63,48.6997 225.63,49.3664 228.5,50.5C 230.418,53.1379 233.085,54.8046 236.5,55.5C 236.973,56.9063 237.973,57.573 239.5,57.5C 244.583,61.333 247.917,66.333 249.5,72.5C 246.169,74.2976 242.502,74.9643 238.5,74.5C 238.715,72.8212 238.048,71.8212 236.5,71.5C 236.5,71.1667 236.5,70.8333 236.5,70.5C 237.043,70.44 237.376,70.1067 237.5,69.5C 236.846,67.1419 235.513,65.4752 233.5,64.5C 232.167,63.8333 231.167,62.8333 230.5,61.5C 227.155,57.6648 222.822,55.6648 217.5,55.5C 209.791,55.2689 202.124,55.6022 194.5,56.5C 192.517,56.1568 191.183,56.8235 190.5,58.5C 178.455,64.8001 175.289,74.1335 181,86.5C 184.26,89.5395 187.76,92.2062 191.5,94.5C 192.985,97.0827 195.318,98.416 198.5,98.5C 198.833,98.5 199.167,98.5 199.5,98.5C 201.395,100.098 203.562,101.432 206,102.5C 206.399,102.272 206.565,101.938 206.5,101.5C 206.833,101.5 207.167,101.5 207.5,101.5C 209.09,103.821 211.423,104.821 214.5,104.5C 217.8,106.642 221.467,107.975 225.5,108.5C 228.247,111.207 231.58,112.873 235.5,113.5C 236.3,115.741 237.966,116.741 240.5,116.5C 244.167,119.5 247.5,122.833 250.5,126.5C 250.707,129.241 251.707,131.574 253.5,133.5C 256.359,142.541 255.859,151.541 252,160.5C 251.051,162.093 249.885,163.426 248.5,164.5C 246.167,166.167 244.167,168.167 242.5,170.5C 242.5,171.167 242.167,171.5 241.5,171.5C 239.973,171.427 238.973,172.094 238.5,173.5C 235.912,175.625 232.912,176.958 229.5,177.5C 225.841,177.149 222.841,178.149 220.5,180.5C 219.833,180.5 219.167,180.5 218.5,180.5C 217.432,179.566 216.099,179.232 214.5,179.5C 210.5,180.833 206.5,180.833 202.5,179.5C 200.901,179.232 199.568,179.566 198.5,180.5C 197.833,180.5 197.167,180.5 196.5,180.5C 195.779,178.618 194.779,178.285 193.5,179.5C 192.833,179.5 192.167,179.5 191.5,179.5C 191.289,177.576 190.623,177.243 189.5,178.5C 185.703,178.128 182.37,176.794 179.5,174.5C 177.178,172.336 174.511,170.669 171.5,169.5C 169.5,168.167 167.833,166.5 166.5,164.5C 166.5,162.5 165.5,161.5 163.5,161.5C 162.5,159.5 161.5,157.5 160.5,155.5C 161.484,153.402 161.151,151.402 159.5,149.5C 159.5,148.833 159.5,148.167 159.5,147.5C 163.5,147.5 167.5,147.5 171.5,147.5C 172.645,154.123 175.645,159.789 180.5,164.5C 180.5,166.5 181.5,167.5 183.5,167.5C 185.819,167.992 187.819,168.992 189.5,170.5C 190.641,171.339 191.974,172.006 193.5,172.5C 194.107,172.376 194.44,172.043 194.5,171.5C 195.167,171.5 195.833,171.5 196.5,171.5C 197.053,173.552 198.053,173.885 199.5,172.5C 204.833,172.5 210.167,172.5 215.5,172.5C 216.779,173.715 217.779,173.382 218.5,171.5C 219.167,171.5 219.833,171.5 220.5,171.5C 220.56,172.043 220.893,172.376 221.5,172.5C 223.026,172.006 224.359,171.339 225.5,170.5C 229.146,168.672 232.479,166.338 235.5,163.5C 237.858,161.832 239.524,159.499 240.5,156.5C 240.376,155.893 240.043,155.56 239.5,155.5C 239.5,151.833 239.5,148.167 239.5,144.5C 240.678,142.662 240.345,140.995 238.5,139.5C 237.094,139.027 236.427,138.027 236.5,136.5C 235.5,133.5 233.5,131.5 230.5,130.5C 228.77,129.974 227.436,128.974 226.5,127.5C 223.753,124.793 220.42,123.127 216.5,122.5C 214.167,121.833 211.833,121.167 209.5,120.5C 209.423,119.25 208.756,118.417 207.5,118C 204.382,116.273 201.049,115.439 197.5,115.5C 196.833,115.5 196.167,115.5 195.5,115.5C 195.179,113.952 194.179,113.285 192.5,113.5C 192.167,113.5 191.833,113.5 191.5,113.5C 190.817,111.824 189.483,111.157 187.5,111.5C 185.664,109.412 183.331,108.079 180.5,107.5C 180.027,106.094 179.027,105.427 177.5,105.5C 176.833,105.5 176.5,105.167 176.5,104.5C 176.027,103.094 175.027,102.427 173.5,102.5C 172.833,102.5 172.5,102.167 172.5,101.5C 172.262,99.5956 171.262,98.2623 169.5,97.5C 167.254,95.3511 165.754,92.6844 165,89.5C 164.182,83.6513 164.348,77.9846 165.5,72.5C 166.931,71.2196 167.598,69.5529 167.5,67.5C 167.328,66.5084 167.662,65.8417 168.5,65.5C 169.906,65.0269 170.573,64.0269 170.5,62.5C 170.5,61.8333 170.833,61.5 171.5,61.5C 173.914,60.0892 175.581,58.0892 176.5,55.5C 178.001,54.2485 179.668,53.2485 181.5,52.5C 181.56,53.0431 181.893,53.3764 182.5,53.5C 184.858,52.8461 186.525,51.5128 187.5,49.5C 191.443,48.5145 195.443,47.8478 199.5,47.5 Z"/></g>
<g><path style="opacity:0.994" fill="#070707" d="M 330.5,47.5 C 336.824,47.5647 343.157,47.5647 349.5,47.5C 350.833,47.5 352.167,47.5 353.5,47.5C 353.711,49.4241 354.377,49.7574 355.5,48.5C 358.988,48.5399 362.321,49.2066 365.5,50.5C 366.784,52.6138 368.784,53.6138 371.5,53.5C 373.153,53.6596 374.486,54.3263 375.5,55.5C 375.821,57.0481 376.821,57.7148 378.5,57.5C 385.022,62.0261 389.689,68.0261 392.5,75.5C 388.205,76.6609 383.871,76.8275 379.5,76C 377.942,73.9481 376.608,71.7815 375.5,69.5C 374.833,66.8333 373.167,65.1667 370.5,64.5C 369.833,64.5 369.5,64.1667 369.5,63.5C 369.631,62.6236 369.298,61.9569 368.5,61.5C 365.921,60.2939 363.421,58.9606 361,57.5C 360.601,57.7284 360.435,58.0618 360.5,58.5C 360.167,58.5 359.833,58.5 359.5,58.5C 359.119,57.0689 358.119,56.2355 356.5,56C 354.613,55.2204 352.946,55.3871 351.5,56.5C 342.888,55.2946 334.221,55.2946 325.5,56.5C 323.801,56.3398 322.134,56.5065 320.5,57C 319.244,57.4169 318.577,58.2502 318.5,59.5C 311.022,62.9734 304.355,67.6401 298.5,73.5C 297.094,73.9731 296.427,74.9731 296.5,76.5C 295.416,79.0041 294.083,81.3374 292.5,83.5C 289.384,86.3594 288.051,89.6928 288.5,93.5C 288.5,93.8333 288.5,94.1667 288.5,94.5C 286.656,96.2789 285.99,98.6122 286.5,101.5C 286.205,108.588 286.538,115.588 287.5,122.5C 286.848,123.449 286.514,124.615 286.5,126C 286.608,127.681 287.275,128.848 288.5,129.5C 288.5,129.833 288.5,130.167 288.5,130.5C 287.285,131.779 287.618,132.779 289.5,133.5C 290.234,134.708 290.567,136.041 290.5,137.5C 290.461,140.089 291.461,142.089 293.5,143.5C 294.338,143.842 294.672,144.508 294.5,145.5C 294.427,147.027 295.094,148.027 296.5,148.5C 299.032,152.211 302.032,155.544 305.5,158.5C 305.5,160.5 306.5,161.5 308.5,161.5C 310.027,161.427 311.027,162.094 311.5,163.5C 311.973,164.906 312.973,165.573 314.5,165.5C 315.911,167.539 317.911,168.539 320.5,168.5C 320.833,168.5 321.167,168.5 321.5,168.5C 322.552,170.256 324.219,170.923 326.5,170.5C 327.833,170.5 329.167,170.5 330.5,170.5C 331.053,172.552 332.053,172.885 333.5,171.5C 333.833,171.5 334.167,171.5 334.5,171.5C 334.791,172.649 335.624,173.316 337,173.5C 338.07,173.472 338.903,173.139 339.5,172.5C 343.5,172.5 347.5,172.5 351.5,172.5C 352.947,173.885 353.947,173.552 354.5,171.5C 357.482,171.037 360.482,170.704 363.5,170.5C 367.567,170.794 370.9,169.46 373.5,166.5C 376.366,164.568 379.366,162.901 382.5,161.5C 384.027,161.573 385.027,160.906 385.5,159.5C 385.833,158.5 386.5,157.833 387.5,157.5C 389.027,157.573 390.027,156.906 390.5,155.5C 392.929,156.855 394.262,158.522 394.5,160.5C 393.5,160.833 392.833,161.5 392.5,162.5C 391.833,163.833 390.833,164.833 389.5,165.5C 387.973,165.427 386.973,166.094 386.5,167.5C 382.901,171.076 378.568,173.41 373.5,174.5C 371.447,174.402 369.78,175.069 368.5,176.5C 364.981,177.964 361.314,178.964 357.5,179.5C 356.053,178.115 355.053,178.448 354.5,180.5C 353.167,180.5 351.833,180.5 350.5,180.5C 348.545,179.07 346.879,179.403 345.5,181.5C 341.5,181.5 337.5,181.5 333.5,181.5C 333.209,180.351 332.376,179.684 331,179.5C 329.93,179.528 329.097,179.861 328.5,180.5C 327.167,180.5 325.833,180.5 324.5,180.5C 323.947,178.448 322.947,178.115 321.5,179.5C 321.167,179.5 320.833,179.5 320.5,179.5C 319.779,177.618 318.779,177.285 317.5,178.5C 317.167,178.5 316.833,178.5 316.5,178.5C 315.448,176.744 313.781,176.077 311.5,176.5C 308.26,174.049 304.593,172.382 300.5,171.5C 300.167,171.5 299.833,171.5 299.5,171.5C 298.965,169.554 297.632,168.554 295.5,168.5C 293.246,167.876 291.579,166.543 290.5,164.5C 288.5,161.833 286.167,159.5 283.5,157.5C 282.833,157.5 282.5,157.167 282.5,156.5C 282.573,154.973 281.906,153.973 280.5,153.5C 278.75,152.341 277.75,150.674 277.5,148.5C 277.25,146.326 276.25,144.659 274.5,143.5C 273.108,140.993 272.108,138.327 271.5,135.5C 272.515,134.54 272.515,133.373 271.5,132C 271.164,130.97 270.497,130.47 269.5,130.5C 268.167,118.5 268.167,106.5 269.5,94.5C 270.376,94.6309 271.043,94.2975 271.5,93.5C 272.653,92.3132 272.653,91.3132 271.5,90.5C 271.5,90.1667 271.5,89.8333 271.5,89.5C 274.375,87.7515 275.708,85.0848 275.5,81.5C 277.104,80.713 277.771,79.3797 277.5,77.5C 278.248,75.6675 279.248,74.0009 280.5,72.5C 282.833,72.1667 284.167,70.8333 284.5,68.5C 286.569,65.4275 289.236,63.0941 292.5,61.5C 295.439,60.544 297.772,58.8774 299.5,56.5C 303.911,55.3073 308.244,53.8073 312.5,52C 313.756,51.5831 314.423,50.7498 314.5,49.5C 319.773,48.3992 325.106,47.7325 330.5,47.5 Z"/></g>
<g><path style="opacity:0.996" fill="#060606" d="M 561.5,47.5 C 567.514,47.558 573.514,47.558 579.5,47.5C 581.167,47.5 582.833,47.5 584.5,47.5C 584.711,49.4241 585.377,49.7574 586.5,48.5C 588.621,48.3253 590.621,48.6586 592.5,49.5C 595.53,51.4032 598.863,52.7365 602.5,53.5C 608.637,55.6541 613.97,58.9874 618.5,63.5C 621.167,66.8333 624.167,69.8333 627.5,72.5C 629.9,74.2964 631.567,76.6298 632.5,79.5C 633.079,82.3311 634.412,84.6644 636.5,86.5C 636.157,88.4832 636.824,89.8166 638.5,90.5C 638.5,90.8333 638.5,91.1667 638.5,91.5C 638.528,94.9164 639.528,97.9164 641.5,100.5C 643.555,107.729 643.888,115.062 642.5,122.5C 640.849,124.402 640.516,126.402 641.5,128.5C 641.5,128.833 641.5,129.167 641.5,129.5C 638.874,131.764 637.541,134.764 637.5,138.5C 635.992,140.181 634.992,142.181 634.5,144.5C 633.326,145.514 632.66,146.847 632.5,148.5C 629.281,154.391 624.948,159.391 619.5,163.5C 617.5,163.5 616.5,164.5 616.5,166.5C 615.5,167.167 614.5,167.833 613.5,168.5C 611.821,168.285 610.821,168.952 610.5,170.5C 609.395,171.6 608.062,172.267 606.5,172.5C 603.966,172.259 602.3,173.259 601.5,175.5C 599.254,176.455 596.921,177.122 594.5,177.5C 592.219,177.077 590.552,177.744 589.5,179.5C 588.833,179.5 588.167,179.5 587.5,179.5C 586.053,178.115 585.053,178.448 584.5,180.5C 583.5,180.5 582.5,180.5 581.5,180.5C 580.791,179.596 579.791,179.263 578.5,179.5C 572.671,180.386 567.004,180.72 561.5,180.5C 560.5,180.5 559.5,180.5 558.5,180.5C 557.779,178.618 556.779,178.285 555.5,179.5C 554.833,179.5 554.167,179.5 553.5,179.5C 546.341,176.262 539.008,172.929 531.5,169.5C 531.027,168.094 530.027,167.427 528.5,167.5C 527.833,167.5 527.5,167.167 527.5,166.5C 526.738,164.738 525.404,163.738 523.5,163.5C 521.833,162.5 520.5,161.167 519.5,159.5C 519.573,157.973 518.906,156.973 517.5,156.5C 515.1,154.704 513.433,152.37 512.5,149.5C 511.805,146.085 510.138,143.418 507.5,141.5C 506.559,139.95 505.893,138.284 505.5,136.5C 506.043,136.44 506.376,136.107 506.5,135.5C 505.787,133.224 505.287,130.891 505,128.5C 504.623,127.058 503.79,126.058 502.5,125.5C 502.5,124.833 502.5,124.167 502.5,123.5C 503.885,122.053 503.552,121.053 501.5,120.5C 501.5,116.833 501.5,113.167 501.5,109.5C 503.597,108.121 503.93,106.455 502.5,104.5C 502.5,103.5 502.5,102.5 502.5,101.5C 504.424,101.289 504.757,100.623 503.5,99.5C 503.232,97.901 503.566,96.5676 504.5,95.5C 506.642,92.1996 507.975,88.533 508.5,84.5C 509.383,81.2957 511.05,78.6291 513.5,76.5C 514.906,76.0269 515.573,75.0269 515.5,73.5C 515.5,73.1667 515.5,72.8333 515.5,72.5C 517.833,72.1667 519.167,70.8333 519.5,68.5C 525.103,61.5672 532.103,56.5672 540.5,53.5C 544.137,52.7365 547.47,51.4032 550.5,49.5C 553.946,48.3126 557.613,47.6459 561.5,47.5 Z M 582.5,56.5 C 588.042,57.9374 593.375,59.9374 598.5,62.5C 598.973,63.9063 599.973,64.573 601.5,64.5C 602.795,65.4884 604.128,66.4884 605.5,67.5C 606.833,69.5 608.5,71.1667 610.5,72.5C 611.921,75.0094 613.588,77.3428 615.5,79.5C 615.932,80.7095 616.599,81.7095 617.5,82.5C 619.444,86.7225 621.111,91.0558 622.5,95.5C 622.328,96.4916 622.662,97.1583 623.5,97.5C 624.833,108.5 624.833,119.5 623.5,130.5C 621.658,134.68 619.992,139.013 618.5,143.5C 614.453,150.239 609.453,156.239 603.5,161.5C 601.611,162.604 599.945,163.937 598.5,165.5C 598.167,165.5 597.833,165.5 597.5,165.5C 594.968,166.596 592.635,167.929 590.5,169.5C 587.539,170.323 584.539,170.99 581.5,171.5C 580.041,171.433 578.708,171.766 577.5,172.5C 571.788,172.687 566.121,172.354 560.5,171.5C 558.621,170.659 556.621,170.325 554.5,170.5C 552.75,169.13 550.75,168.13 548.5,167.5C 547.71,166.599 546.71,165.932 545.5,165.5C 544.833,165.167 544.167,164.833 543.5,164.5C 543.027,163.094 542.027,162.427 540.5,162.5C 540.5,161.833 540.167,161.5 539.5,161.5C 537.833,159.167 535.833,157.167 533.5,155.5C 532.488,154.128 531.488,152.795 530.5,151.5C 530.573,149.973 529.906,148.973 528.5,148.5C 527.674,145.515 526.341,142.849 524.5,140.5C 522.882,136.311 521.882,131.978 521.5,127.5C 521.167,126.167 520.833,124.833 520.5,123.5C 520.5,122.5 520.5,121.5 520.5,120.5C 520.5,116.5 520.5,112.5 520.5,108.5C 520.5,106.833 520.5,105.167 520.5,103.5C 521.369,101.283 521.702,98.9496 521.5,96.5C 522.434,95.4324 522.768,94.099 522.5,92.5C 523.871,90.064 524.871,87.3973 525.5,84.5C 526.674,83.4863 527.34,82.153 527.5,80.5C 528.906,80.0269 529.573,79.0269 529.5,77.5C 531.156,75.5398 532.823,73.5398 534.5,71.5C 536.5,70.1667 538.167,68.5 539.5,66.5C 543.873,63.3136 548.54,60.647 553.5,58.5C 554.995,58.0113 556.329,57.3446 557.5,56.5C 565.883,55.2617 574.217,55.2617 582.5,56.5 Z"/></g>
<g><path style="opacity:0.954" fill="#030303" d="M 72.5,48.5 C 100.169,48.3334 127.835,48.5 155.5,49C 156.833,52.3333 156.833,55.6667 155.5,59C 133.503,59.5 111.503,59.6666 89.5,59.5C 89.5,74.8333 89.5,90.1667 89.5,105.5C 108.5,105.5 127.5,105.5 146.5,105.5C 146.5,108.5 146.5,111.5 146.5,114.5C 127.5,114.5 108.5,114.5 89.5,114.5C 89.5,132.5 89.5,150.5 89.5,168.5C 111.503,168.333 133.503,168.5 155.5,169C 156.833,172 156.833,175 155.5,178C 127.835,178.5 100.169,178.667 72.5,178.5C 72.5,135.167 72.5,91.8333 72.5,48.5 Z"/></g>
<g><path style="opacity:1" fill="#424242" d="M 217.5,47.5 C 218.492,47.3284 219.158,47.6618 219.5,48.5C 218.377,49.7574 217.711,49.4241 217.5,47.5 Z"/></g>
<g><path style="opacity:1" fill="#414141" d="M 353.5,47.5 C 354.492,47.3284 355.158,47.6618 355.5,48.5C 354.377,49.7574 353.711,49.4241 353.5,47.5 Z"/></g>
<g><path style="opacity:0.992" fill="#010101" d="M 413.5,48.5 C 418.695,48.1795 423.695,48.5128 428.5,49.5C 428.5,89.5 428.5,129.5 428.5,169.5C 450.5,169.5 472.5,169.5 494.5,169.5C 494.5,172.5 494.5,175.5 494.5,178.5C 467.5,178.5 440.5,178.5 413.5,178.5C 413.5,135.167 413.5,91.8333 413.5,48.5 Z"/></g>
<g><path style="opacity:1" fill="#414141" d="M 584.5,47.5 C 585.492,47.3284 586.158,47.6618 586.5,48.5C 585.377,49.7574 584.711,49.4241 584.5,47.5 Z"/></g>
<g><path style="opacity:0.953" fill="#030303" d="M 634.5,48.5 C 672.835,48.3333 711.168,48.5 749.5,49C 750.833,52.3333 750.833,55.6667 749.5,59C 733.17,59.4999 716.837,59.6666 700.5,59.5C 700.5,99.1667 700.5,138.833 700.5,178.5C 694.833,178.5 689.167,178.5 683.5,178.5C 683.5,138.833 683.5,99.1667 683.5,59.5C 666.833,59.5 650.167,59.5 633.5,59.5C 633.244,55.7307 633.577,52.0641 634.5,48.5 Z"/></g>
<g><path style="opacity:0.514" fill="#535353" d="M 413.5,48.5 C 413.5,91.8333 413.5,135.167 413.5,178.5C 412.883,178.389 412.383,178.056 412,177.5C 411.333,134.833 411.333,92.1667 412,49.5C 412.383,48.944 412.883,48.6107 413.5,48.5 Z"/></g>
<g><path style="opacity:1" fill="#414141" d="M 187.5,49.5 C 186.525,51.5128 184.858,52.8461 182.5,53.5C 181.893,53.3764 181.56,53.0431 181.5,52.5C 183.5,51.5 185.5,50.5 187.5,49.5 Z"/></g>
<g><path style="opacity:1" fill="#414141" d="M 228.5,50.5 C 231.54,51.6803 234.206,53.347 236.5,55.5C 233.085,54.8046 230.418,53.1379 228.5,50.5 Z"/></g>
<g><path style="opacity:1" fill="#373737" d="M 550.5,49.5 C 547.47,51.4032 544.137,52.7365 540.5,53.5C 543.37,51.2057 546.703,49.8723 550.5,49.5 Z"/></g>
<g><path style="opacity:1" fill="#474747" d="M 592.5,49.5 C 596.297,49.8723 599.63,51.2057 602.5,53.5C 598.863,52.7365 595.53,51.4032 592.5,49.5 Z"/></g>
<g><path style="opacity:1" fill="#494949" d="M 365.5,50.5 C 367.75,51.1302 369.75,52.1302 371.5,53.5C 368.784,53.6138 366.784,52.6138 365.5,50.5 Z"/></g>
<g><path style="opacity:1" fill="#2f2f2f" d="M 314.5,49.5 C 314.423,50.7498 313.756,51.5831 312.5,52C 308.244,53.8073 303.911,55.3073 299.5,56.5C 304.315,53.9278 309.315,51.5944 314.5,49.5 Z"/></g>
<g><path style="opacity:1" fill="#3e3e3e" d="M 217.5,55.5 C 222.822,55.6648 227.155,57.6648 230.5,61.5C 226.222,59.1916 221.889,57.1916 217.5,55.5 Z"/></g>
<g><path style="opacity:0.537" fill="#434343" d="M 194.5,56.5 C 193.486,57.6737 192.153,58.3404 190.5,58.5C 191.183,56.8235 192.517,56.1568 194.5,56.5 Z"/></g>
<g><path style="opacity:0.737" fill="#4b4b4b" d="M 236.5,55.5 C 238.027,55.427 239.027,56.0937 239.5,57.5C 237.973,57.573 236.973,56.9063 236.5,55.5 Z"/></g>
<g><path style="opacity:1" fill="#434343" d="M 325.5,56.5 C 323.321,57.6772 320.987,58.6772 318.5,59.5C 318.577,58.2502 319.244,57.4169 320.5,57C 322.134,56.5065 323.801,56.3398 325.5,56.5 Z"/></g>
<g><path style="opacity:0.871" fill="#323232" d="M 351.5,56.5 C 352.946,55.3871 354.613,55.2204 356.5,56C 358.119,56.2355 359.119,57.0689 359.5,58.5C 356.994,57.2504 354.327,56.5838 351.5,56.5 Z"/></g>
<g><path style="opacity:0.518" fill="#4a4a4a" d="M 375.5,55.5 C 376.71,55.9321 377.71,56.5987 378.5,57.5C 376.821,57.7148 375.821,57.0481 375.5,55.5 Z"/></g>
<g><path style="opacity:0.937" fill="#353535" d="M 557.5,56.5 C 556.329,57.3446 554.995,58.0113 553.5,58.5C 553.369,57.6236 553.702,56.9569 554.5,56.5C 555.687,55.3473 556.687,55.3473 557.5,56.5 Z"/></g>
<g><path style="opacity:1" fill="#515151" d="M 176.5,55.5 C 175.581,58.0892 173.914,60.0892 171.5,61.5C 172.419,58.9108 174.086,56.9108 176.5,55.5 Z"/></g>
<g><path style="opacity:0.955" fill="#383838" d="M 299.5,56.5 C 297.772,58.8774 295.439,60.544 292.5,61.5C 294.267,59.1099 296.6,57.4432 299.5,56.5 Z"/></g>
<g><path style="opacity:0.875" fill="#535353" d="M 582.5,56.5 C 584.726,55.441 587.059,55.6077 589.5,57C 592.898,58.3571 595.898,60.1904 598.5,62.5C 593.375,59.9374 588.042,57.9374 582.5,56.5 Z"/></g>
<g><path style="opacity:1" fill="#383838" d="M 369.5,63.5 C 366.331,62.0834 363.331,60.4168 360.5,58.5C 360.435,58.0618 360.601,57.7284 361,57.5C 363.421,58.9606 365.921,60.2939 368.5,61.5C 369.298,61.9569 369.631,62.6236 369.5,63.5 Z"/></g>
<g><path style="opacity:1" fill="#464646" d="M 170.5,62.5 C 170.573,64.0269 169.906,65.0269 168.5,65.5C 168.427,63.9731 169.094,62.9731 170.5,62.5 Z"/></g>
<g><path style="opacity:0.851" fill="#575757" d="M 598.5,62.5 C 600.027,62.427 601.027,63.0937 601.5,64.5C 599.973,64.573 598.973,63.9063 598.5,62.5 Z"/></g>
<g><path style="opacity:1" fill="#545454" d="M 370.5,64.5 C 373.167,65.1667 374.833,66.8333 375.5,69.5C 373.5,68.1667 371.833,66.5 370.5,64.5 Z"/></g>
<g><path style="opacity:0.755" fill="#373737" d="M 233.5,64.5 C 235.513,65.4752 236.846,67.1419 237.5,69.5C 237.376,70.1067 237.043,70.44 236.5,70.5C 235.5,68.5 234.5,66.5 233.5,64.5 Z"/></g>
<g><path style="opacity:0.533" fill="#292929" d="M 618.5,63.5 C 622.5,65.5 625.5,68.5 627.5,72.5C 624.167,69.8333 621.167,66.8333 618.5,63.5 Z"/></g>
<g><path style="opacity:1" fill="#393939" d="M 605.5,67.5 C 608.167,68.1667 609.833,69.8333 610.5,72.5C 608.5,71.1667 606.833,69.5 605.5,67.5 Z"/></g>
<g><path style="opacity:0.863" fill="#4a4a4a" d="M 167.5,67.5 C 167.598,69.5529 166.931,71.2196 165.5,72.5C 165.402,70.4471 166.069,68.7804 167.5,67.5 Z"/></g>
<g><path style="opacity:1" fill="#434343" d="M 284.5,68.5 C 284.167,70.8333 282.833,72.1667 280.5,72.5C 281.5,70.8333 282.833,69.5 284.5,68.5 Z"/></g>
<g><path style="opacity:1" fill="#454545" d="M 519.5,68.5 C 519.167,70.8333 517.833,72.1667 515.5,72.5C 516.5,70.8333 517.833,69.5 519.5,68.5 Z"/></g>
<g><path style="opacity:0.549" fill="#323232" d="M 539.5,66.5 C 538.167,68.5 536.5,70.1667 534.5,71.5C 535.167,68.8333 536.833,67.1667 539.5,66.5 Z"/></g>
<g><path style="opacity:0.989" fill="#202020" d="M 236.5,71.5 C 238.048,71.8212 238.715,72.8212 238.5,74.5C 242.502,74.9643 246.169,74.2976 249.5,72.5C 250.434,73.5676 250.768,74.901 250.5,76.5C 246.486,76.6655 242.486,76.4988 238.5,76C 237.733,74.5295 237.067,73.0295 236.5,71.5 Z"/></g>
<g><path style="opacity:1" fill="#444444" d="M 515.5,73.5 C 515.573,75.0269 514.906,76.0269 513.5,76.5C 513.427,74.9731 514.094,73.9731 515.5,73.5 Z"/></g>
<g><path style="opacity:0.835" fill="#4d4d4d" d="M 298.5,73.5 C 298.573,75.0269 297.906,76.0269 296.5,76.5C 296.427,74.9731 297.094,73.9731 298.5,73.5 Z"/></g>
<g><path style="opacity:0.812" fill="#4d4d4d" d="M 529.5,77.5 C 529.573,79.0269 528.906,80.0269 527.5,80.5C 527.427,78.9731 528.094,77.9731 529.5,77.5 Z"/></g>
<g><path style="opacity:1" fill="#434343" d="M 615.5,79.5 C 617.048,79.8212 617.715,80.8212 617.5,82.5C 616.599,81.7095 615.932,80.7095 615.5,79.5 Z"/></g>
<g><path style="opacity:0.98" fill="#444444" d="M 277.5,77.5 C 277.771,79.3797 277.104,80.713 275.5,81.5C 275.66,79.847 276.326,78.5137 277.5,77.5 Z"/></g>
<g><path style="opacity:0.918" fill="#434343" d="M 632.5,79.5 C 634.588,81.3356 635.921,83.6689 636.5,86.5C 634.412,84.6644 633.079,82.3311 632.5,79.5 Z"/></g>
<g><path style="opacity:1" fill="#343434" d="M 275.5,81.5 C 275.708,85.0848 274.375,87.7515 271.5,89.5C 272.323,86.5198 273.657,83.8531 275.5,81.5 Z"/></g>
<g><path style="opacity:0.961" fill="#363636" d="M 525.5,84.5 C 524.871,87.3973 523.871,90.064 522.5,92.5C 522.345,89.284 523.345,86.6174 525.5,84.5 Z"/></g>
<g><path style="opacity:0.957" fill="#303030" d="M 508.5,84.5 C 507.975,88.533 506.642,92.1996 504.5,95.5C 505.065,91.4632 506.399,87.7966 508.5,84.5 Z"/></g>
<g><path style="opacity:1" fill="#414141" d="M 636.5,86.5 C 637.674,87.5137 638.34,88.847 638.5,90.5C 636.824,89.8166 636.157,88.4832 636.5,86.5 Z"/></g>
<g><path style="opacity:0.827" fill="#424242" d="M 292.5,83.5 C 291.342,86.9889 290.009,90.3223 288.5,93.5C 288.051,89.6928 289.384,86.3594 292.5,83.5 Z"/></g>
<g><path style="opacity:1" fill="#3b3b3b" d="M 271.5,90.5 C 272.653,91.3132 272.653,92.3132 271.5,93.5C 271.043,94.2975 270.376,94.6309 269.5,94.5C 269.989,93.0048 270.655,91.6715 271.5,90.5 Z"/></g>
<g><path style="opacity:1" fill="#454545" d="M 191.5,94.5 C 194.032,95.5957 196.365,96.9291 198.5,98.5C 195.318,98.416 192.985,97.0827 191.5,94.5 Z"/></g>
<g><path style="opacity:1" fill="#414141" d="M 622.5,95.5 C 624.424,95.7107 624.757,96.3774 623.5,97.5C 622.662,97.1583 622.328,96.4916 622.5,95.5 Z"/></g>
<g><path style="opacity:0.933" fill="#373737" d="M 288.5,94.5 C 288.073,97.0098 287.407,99.3432 286.5,101.5C 285.99,98.6122 286.656,96.2789 288.5,94.5 Z"/></g>
<g><path style="opacity:0.553" fill="#393939" d="M 638.5,91.5 C 640.072,94.2154 641.072,97.2154 641.5,100.5C 639.528,97.9164 638.528,94.9164 638.5,91.5 Z"/></g>
<g><path style="opacity:0.518" fill="#404040" d="M 521.5,96.5 C 521.702,98.9496 521.369,101.283 520.5,103.5C 519.355,101.047 519.688,98.7134 521.5,96.5 Z"/></g>
<g><path style="opacity:0.647" fill="#494949" d="M 169.5,97.5 C 171.262,98.2623 172.262,99.5956 172.5,101.5C 170.738,100.738 169.738,99.4044 169.5,97.5 Z"/></g>
<g><path style="opacity:0.914" fill="#484848" d="M 199.5,98.5 C 202.157,98.9348 204.491,99.9348 206.5,101.5C 206.565,101.938 206.399,102.272 206,102.5C 203.562,101.432 201.395,100.098 199.5,98.5 Z"/></g>
<g><path style="opacity:1" fill="#484848" d="M 503.5,99.5 C 504.757,100.623 504.424,101.289 502.5,101.5C 502.328,100.508 502.662,99.8417 503.5,99.5 Z"/></g>
<g><path style="opacity:1" fill="#4f4f4f" d="M 173.5,102.5 C 175.027,102.427 176.027,103.094 176.5,104.5C 174.973,104.573 173.973,103.906 173.5,102.5 Z"/></g>
<g><path style="opacity:0.992" fill="#424242" d="M 207.5,101.5 C 210.157,101.935 212.491,102.935 214.5,104.5C 211.423,104.821 209.09,103.821 207.5,101.5 Z"/></g>
<g><path style="opacity:0.929" fill="#464646" d="M 177.5,105.5 C 179.027,105.427 180.027,106.094 180.5,107.5C 178.973,107.573 177.973,106.906 177.5,105.5 Z"/></g>
<g><path style="opacity:1" fill="#333333" d="M 214.5,104.5 C 218.537,105.065 222.203,106.399 225.5,108.5C 221.467,107.975 217.8,106.642 214.5,104.5 Z"/></g>
<g><path style="opacity:1" fill="#464646" d="M 180.5,107.5 C 183.331,108.079 185.664,109.412 187.5,111.5C 184.669,110.921 182.336,109.588 180.5,107.5 Z"/></g>
<g><path style="opacity:0.757" fill="#343434" d="M 502.5,104.5 C 503.93,106.455 503.597,108.121 501.5,109.5C 501.366,107.708 501.699,106.042 502.5,104.5 Z"/></g>
<g><path style="opacity:0.882" fill="#262626" d="M 225.5,108.5 C 229.151,109.659 232.485,111.326 235.5,113.5C 231.58,112.873 228.247,111.207 225.5,108.5 Z"/></g>
<g><path style="opacity:1" fill="#434343" d="M 187.5,111.5 C 189.483,111.157 190.817,111.824 191.5,113.5C 189.847,113.34 188.514,112.674 187.5,111.5 Z"/></g>
<g><path style="opacity:1" fill="#656565" d="M 520.5,108.5 C 520.5,112.5 520.5,116.5 520.5,120.5C 518.983,118.538 518.316,116.205 518.5,113.5C 518.556,111.36 519.223,109.694 520.5,108.5 Z"/></g>
<g><path style="opacity:0.906" fill="#4d4d4d" d="M 192.5,113.5 C 194.179,113.285 195.179,113.952 195.5,115.5C 194.29,115.068 193.29,114.401 192.5,113.5 Z"/></g>
<g><path style="opacity:1" fill="#363636" d="M 235.5,113.5 C 237.434,114.11 239.101,115.11 240.5,116.5C 237.966,116.741 236.3,115.741 235.5,113.5 Z"/></g>
<g><path style="opacity:1" fill="#414141" d="M 197.5,115.5 C 201.049,115.439 204.382,116.273 207.5,118C 208.756,118.417 209.423,119.25 209.5,120.5C 205.429,118.815 201.429,117.148 197.5,115.5 Z"/></g>
<g><path style="opacity:1" fill="#4a4a4a" d="M 501.5,120.5 C 503.552,121.053 503.885,122.053 502.5,123.5C 501.89,122.609 501.557,121.609 501.5,120.5 Z"/></g>
<g><path style="opacity:1" fill="#5e5e5e" d="M 520.5,123.5 C 520.833,124.833 521.167,126.167 521.5,127.5C 520.414,127.38 519.747,126.713 519.5,125.5C 519.543,124.584 519.876,123.917 520.5,123.5 Z"/></g>
<g><path style="opacity:0.957" fill="#4c4c4c" d="M 216.5,122.5 C 220.42,123.127 223.753,124.793 226.5,127.5C 222.849,126.341 219.515,124.674 216.5,122.5 Z"/></g>
<g><path style="opacity:0.435" fill="#3b3b3b" d="M 642.5,122.5 C 642.483,124.565 642.15,126.565 641.5,128.5C 640.516,126.402 640.849,124.402 642.5,122.5 Z"/></g>
<g><path style="opacity:0.945" fill="#383838" d="M 287.5,122.5 C 287.448,124.903 287.781,127.236 288.5,129.5C 287.275,128.848 286.608,127.681 286.5,126C 286.514,124.615 286.848,123.449 287.5,122.5 Z"/></g>
<g><path style="opacity:1" fill="#2c2c2c" d="M 502.5,125.5 C 503.79,126.058 504.623,127.058 505,128.5C 505.287,130.891 505.787,133.224 506.5,135.5C 506.376,136.107 506.043,136.44 505.5,136.5C 504.303,132.905 503.303,129.239 502.5,125.5 Z"/></g>
<g><path style="opacity:0.882" fill="#353535" d="M 250.5,126.5 C 252.293,128.426 253.293,130.759 253.5,133.5C 251.707,131.574 250.707,129.241 250.5,126.5 Z"/></g>
<g><path style="opacity:1" fill="#424242" d="M 288.5,130.5 C 289.11,131.391 289.443,132.391 289.5,133.5C 287.618,132.779 287.285,131.779 288.5,130.5 Z"/></g>
<g><path style="opacity:1" fill="#525252" d="M 230.5,130.5 C 233.5,131.5 235.5,133.5 236.5,136.5C 234.167,134.833 232.167,132.833 230.5,130.5 Z"/></g>
<g><path style="opacity:0.988" fill="#444444" d="M 269.5,130.5 C 270.497,130.47 271.164,130.97 271.5,132C 272.515,133.373 272.515,134.54 271.5,135.5C 270.559,133.95 269.893,132.284 269.5,130.5 Z"/></g>
<g><path style="opacity:1" fill="#454545" d="M 641.5,129.5 C 640.538,132.739 639.205,135.739 637.5,138.5C 637.541,134.764 638.874,131.764 641.5,129.5 Z"/></g>
<g><path style="opacity:0.878" fill="#434343" d="M 290.5,137.5 C 292.008,139.181 293.008,141.181 293.5,143.5C 291.461,142.089 290.461,140.089 290.5,137.5 Z"/></g>
<g><path style="opacity:0.925" fill="#3f3f3f" d="M 623.5,130.5 C 623.66,132.199 623.494,133.866 623,135.5C 622.14,138.633 620.64,141.3 618.5,143.5C 619.992,139.013 621.658,134.68 623.5,130.5 Z"/></g>
<g><path style="opacity:1" fill="#313131" d="M 238.5,139.5 C 240.345,140.995 240.678,142.662 239.5,144.5C 238.699,142.958 238.366,141.292 238.5,139.5 Z"/></g>
<g><path style="opacity:0.816" fill="#5d5d5d" d="M 637.5,138.5 C 637.539,141.089 636.539,143.089 634.5,144.5C 634.992,142.181 635.992,140.181 637.5,138.5 Z"/></g>
<g><path style="opacity:0.855" fill="#545454" d="M 524.5,140.5 C 526.341,142.849 527.674,145.515 528.5,148.5C 526.127,146.421 524.794,143.754 524.5,140.5 Z"/></g>
<g><path style="opacity:0.925" fill="#464646" d="M 274.5,143.5 C 276.25,144.659 277.25,146.326 277.5,148.5C 275.75,147.341 274.75,145.674 274.5,143.5 Z"/></g>
<g><path style="opacity:0.835" fill="#5b5b5b" d="M 294.5,145.5 C 295.906,145.973 296.573,146.973 296.5,148.5C 295.094,148.027 294.427,147.027 294.5,145.5 Z"/></g>
<g><path style="opacity:0.939" fill="#2f2f2f" d="M 507.5,141.5 C 510.138,143.418 511.805,146.085 512.5,149.5C 510.336,147.178 508.669,144.511 507.5,141.5 Z"/></g>
<g><path style="opacity:1" fill="#484848" d="M 171.5,147.5 C 167.5,147.5 163.5,147.5 159.5,147.5C 161.048,146.206 163.048,145.539 165.5,145.5C 167.952,145.539 169.952,146.206 171.5,147.5 Z"/></g>
<g><path style="opacity:0.796" fill="#535353" d="M 634.5,144.5 C 634.771,146.38 634.104,147.713 632.5,148.5C 632.66,146.847 633.326,145.514 634.5,144.5 Z"/></g>
<g><path style="opacity:0.831" fill="#4a4a4a" d="M 528.5,148.5 C 529.906,148.973 530.573,149.973 530.5,151.5C 528.952,151.179 528.285,150.179 528.5,148.5 Z"/></g>
<g><path style="opacity:0.718" fill="#3e3e3e" d="M 159.5,149.5 C 161.151,151.402 161.484,153.402 160.5,155.5C 159.85,153.565 159.517,151.565 159.5,149.5 Z"/></g>
<g><path style="opacity:0.706" fill="#4b4b4b" d="M 280.5,153.5 C 281.906,153.973 282.573,154.973 282.5,156.5C 281.094,156.027 280.427,155.027 280.5,153.5 Z"/></g>
<g><path style="opacity:1" fill="#4b4b4b" d="M 390.5,155.5 C 390.027,156.906 389.027,157.573 387.5,157.5C 388.242,155.65 389.242,154.984 390.5,155.5 Z"/></g>
<g><path style="opacity:1" fill="#464646" d="M 533.5,155.5 C 535.833,157.167 537.833,159.167 539.5,161.5C 536.5,160.5 534.5,158.5 533.5,155.5 Z"/></g>
<g><path style="opacity:0.588" fill="#616161" d="M 283.5,157.5 C 286.167,159.5 288.5,161.833 290.5,164.5C 287.167,163.167 284.833,160.833 283.5,157.5 Z"/></g>
<g><path style="opacity:0.608" fill="#474747" d="M 517.5,156.5 C 518.906,156.973 519.573,157.973 519.5,159.5C 518.094,159.027 517.427,158.027 517.5,156.5 Z"/></g>
<g><path style="opacity:1" fill="#4a4a4a" d="M 239.5,155.5 C 240.043,155.56 240.376,155.893 240.5,156.5C 239.524,159.499 237.858,161.832 235.5,163.5C 236.866,160.768 238.199,158.101 239.5,155.5 Z"/></g>
<g><path style="opacity:0.843" fill="#454545" d="M 305.5,158.5 C 306.833,159.167 307.833,160.167 308.5,161.5C 306.5,161.5 305.5,160.5 305.5,158.5 Z"/></g>
<g><path style="opacity:1" fill="#424242" d="M 385.5,159.5 C 385.027,160.906 384.027,161.573 382.5,161.5C 382.973,160.094 383.973,159.427 385.5,159.5 Z"/></g>
<g><path style="opacity:0.62" fill="#6a6a6a" d="M 394.5,160.5 C 394.5,161.833 393.833,162.5 392.5,162.5C 392.833,161.5 393.5,160.833 394.5,160.5 Z"/></g>
<g><path style="opacity:0.847" fill="#444444" d="M 163.5,161.5 C 165.5,161.5 166.5,162.5 166.5,164.5C 165.167,163.833 164.167,162.833 163.5,161.5 Z"/></g>
<g><path style="opacity:0.663" fill="#515151" d="M 540.5,162.5 C 542.027,162.427 543.027,163.094 543.5,164.5C 541.973,164.573 540.973,163.906 540.5,162.5 Z"/></g>
<g><path style="opacity:0.927" fill="#383838" d="M 603.5,161.5 C 602.871,163.997 601.204,165.33 598.5,165.5C 599.945,163.937 601.611,162.604 603.5,161.5 Z"/></g>
<g><path style="opacity:0.729" fill="#484848" d="M 311.5,163.5 C 313.027,163.427 314.027,164.094 314.5,165.5C 312.973,165.573 311.973,164.906 311.5,163.5 Z"/></g>
<g><path style="opacity:1" fill="#545454" d="M 523.5,163.5 C 525.404,163.738 526.738,164.738 527.5,166.5C 525.596,166.262 524.262,165.262 523.5,163.5 Z"/></g>
<g><path style="opacity:0.573" fill="#454545" d="M 619.5,163.5 C 618.833,164.833 617.833,165.833 616.5,166.5C 616.5,164.5 617.5,163.5 619.5,163.5 Z"/></g>
<g><path style="opacity:0.82" fill="#484848" d="M 180.5,164.5 C 181.833,165.167 182.833,166.167 183.5,167.5C 181.5,167.5 180.5,166.5 180.5,164.5 Z"/></g>
<g><path style="opacity:0.953" fill="#3b3b3b" d="M 314.5,165.5 C 316.819,165.992 318.819,166.992 320.5,168.5C 317.911,168.539 315.911,167.539 314.5,165.5 Z"/></g>
<g><path style="opacity:0.714" fill="#646464" d="M 389.5,165.5 C 389.027,166.906 388.027,167.573 386.5,167.5C 386.973,166.094 387.973,165.427 389.5,165.5 Z"/></g>
<g><path style="opacity:1" fill="#444444" d="M 545.5,165.5 C 546.71,165.932 547.71,166.599 548.5,167.5C 546.821,167.715 545.821,167.048 545.5,165.5 Z"/></g>
<g><path style="opacity:1" fill="#575757" d="M 528.5,167.5 C 530.027,167.427 531.027,168.094 531.5,169.5C 529.973,169.573 528.973,168.906 528.5,167.5 Z"/></g>
<g><path style="opacity:0.671" fill="#4f4f4f" d="M 248.5,164.5 C 247.5,167.5 245.5,169.5 242.5,170.5C 244.167,168.167 246.167,166.167 248.5,164.5 Z"/></g>
<g><path style="opacity:1" fill="#3d3d3d" d="M 373.5,166.5 C 370.9,169.46 367.567,170.794 363.5,170.5C 366.678,168.991 370.011,167.658 373.5,166.5 Z"/></g>
<g><path style="opacity:0.867" fill="#4c4c4c" d="M 428.5,49.5 C 429.499,88.9965 429.832,128.663 429.5,168.5C 451.833,168.5 474.167,168.5 496.5,168.5C 497.069,172.329 496.402,175.663 494.5,178.5C 494.5,175.5 494.5,172.5 494.5,169.5C 472.5,169.5 450.5,169.5 428.5,169.5C 428.5,129.5 428.5,89.5 428.5,49.5 Z"/></g>
<g><path style="opacity:1" fill="#373737" d="M 597.5,165.5 C 596.335,168.59 594.002,169.924 590.5,169.5C 592.635,167.929 594.968,166.596 597.5,165.5 Z"/></g>
<g><path style="opacity:1" fill="#424242" d="M 295.5,168.5 C 297.632,168.554 298.965,169.554 299.5,171.5C 297.77,170.974 296.436,169.974 295.5,168.5 Z"/></g>
<g><path style="opacity:1" fill="#3d3d3d" d="M 321.5,168.5 C 323.403,168.796 325.07,169.463 326.5,170.5C 324.219,170.923 322.552,170.256 321.5,168.5 Z"/></g>
<g><path style="opacity:0.737" fill="#404040" d="M 613.5,168.5 C 612.71,169.401 611.71,170.068 610.5,170.5C 610.821,168.952 611.821,168.285 613.5,168.5 Z"/></g>
<g><path style="opacity:1" fill="#444444" d="M 171.5,169.5 C 174.511,170.669 177.178,172.336 179.5,174.5C 176.151,173.831 173.484,172.164 171.5,169.5 Z"/></g>
<g><path style="opacity:0.878" fill="#4d4d4d" d="M 189.5,170.5 C 191.292,170.366 192.958,170.699 194.5,171.5C 194.44,172.043 194.107,172.376 193.5,172.5C 191.974,172.006 190.641,171.339 189.5,170.5 Z"/></g>
<g><path style="opacity:0.624" fill="#414141" d="M 225.5,170.5 C 224.359,171.339 223.026,172.006 221.5,172.5C 220.893,172.376 220.56,172.043 220.5,171.5C 222.042,170.699 223.708,170.366 225.5,170.5 Z"/></g>
<g><path style="opacity:1" fill="#545454" d="M 330.5,170.5 C 331.391,171.11 332.391,171.443 333.5,171.5C 332.053,172.885 331.053,172.552 330.5,170.5 Z"/></g>
<g><path style="opacity:1" fill="#3c3c3c" d="M 554.5,170.5 C 556.621,170.325 558.621,170.659 560.5,171.5C 558.402,172.484 556.402,172.151 554.5,170.5 Z"/></g>
<g><path style="opacity:1" fill="#545454" d="M 196.5,171.5 C 197.609,171.557 198.609,171.89 199.5,172.5C 198.053,173.885 197.053,173.552 196.5,171.5 Z"/></g>
<g><path style="opacity:0.963" fill="#535353" d="M 218.5,171.5 C 217.779,173.382 216.779,173.715 215.5,172.5C 216.391,171.89 217.391,171.557 218.5,171.5 Z"/></g>
<g><path style="opacity:0.682" fill="#4a4a4a" d="M 241.5,171.5 C 241.027,172.906 240.027,173.573 238.5,173.5C 238.973,172.094 239.973,171.427 241.5,171.5 Z"/></g>
<g><path style="opacity:0.996" fill="#555555" d="M 334.5,171.5 C 336.292,171.366 337.958,171.699 339.5,172.5C 337.958,171.699 336.292,171.366 334.5,171.5 Z"/></g>
<g><path style="opacity:1" fill="#5b5b5b" d="M 354.5,171.5 C 353.947,173.552 352.947,173.885 351.5,172.5C 352.391,171.89 353.391,171.557 354.5,171.5 Z"/></g>
<g><path style="opacity:1" fill="#505050" d="M 581.5,171.5 C 581.38,172.586 580.713,173.253 579.5,173.5C 578.584,173.457 577.917,173.124 577.5,172.5C 578.708,171.766 580.041,171.433 581.5,171.5 Z"/></g>
<g><path style="opacity:0.918" fill="#464646" d="M 606.5,172.5 C 605.035,173.737 603.368,174.737 601.5,175.5C 602.3,173.259 603.966,172.259 606.5,172.5 Z"/></g>
<g><path style="opacity:0.918" fill="#404040" d="M 300.5,171.5 C 304.593,172.382 308.26,174.049 311.5,176.5C 307.142,176.092 303.476,174.426 300.5,171.5 Z"/></g>
<g><path style="opacity:0.678" fill="#4a4a4a" d="M 373.5,174.5 C 372.22,175.931 370.553,176.598 368.5,176.5C 369.78,175.069 371.447,174.402 373.5,174.5 Z"/></g>
<g><path style="opacity:0.671" fill="#3e3e3e" d="M 531.5,169.5 C 539.008,172.929 546.341,176.262 553.5,179.5C 545.363,177.762 538.029,174.429 531.5,169.5 Z"/></g>
<g><path style="opacity:0.988" fill="#3d3d3d" d="M 311.5,176.5 C 313.781,176.077 315.448,176.744 316.5,178.5C 314.597,178.204 312.93,177.537 311.5,176.5 Z"/></g>
<g><path style="opacity:0.506" fill="#535353" d="M 594.5,177.5 C 593.07,178.537 591.403,179.204 589.5,179.5C 590.552,177.744 592.219,177.077 594.5,177.5 Z"/></g>
<g><path style="opacity:0.808" fill="#5a5a5a" d="M 191.5,179.5 C 190.508,179.672 189.842,179.338 189.5,178.5C 190.623,177.243 191.289,177.576 191.5,179.5 Z"/></g>
<g><path style="opacity:0.973" fill="#404040" d="M 193.5,179.5 C 194.779,178.285 195.779,178.618 196.5,180.5C 195.391,180.443 194.391,180.11 193.5,179.5 Z"/></g>
<g><path style="opacity:0.757" fill="#484848" d="M 229.5,177.5 C 226.785,179.072 223.785,180.072 220.5,180.5C 222.841,178.149 225.841,177.149 229.5,177.5 Z"/></g>
<g><path style="opacity:0.776" fill="#4f4f4f" d="M 317.5,178.5 C 318.779,177.285 319.779,177.618 320.5,179.5C 319.391,179.443 318.391,179.11 317.5,178.5 Z"/></g>
<g><path style="opacity:1" fill="#595959" d="M 357.5,179.5 C 356.609,180.11 355.609,180.443 354.5,180.5C 355.053,178.448 356.053,178.115 357.5,179.5 Z"/></g>
<g><path style="opacity:1" fill="#414141" d="M 555.5,179.5 C 556.779,178.285 557.779,178.618 558.5,180.5C 557.391,180.443 556.391,180.11 555.5,179.5 Z"/></g>
<g><path style="opacity:0.694" fill="#646464" d="M 321.5,179.5 C 322.947,178.115 323.947,178.448 324.5,180.5C 323.391,180.443 322.391,180.11 321.5,179.5 Z"/></g>
<g><path style="opacity:1" fill="#5f5f5f" d="M 578.5,179.5 C 579.791,179.263 580.791,179.596 581.5,180.5C 579.958,181.301 578.292,181.634 576.5,181.5C 577.167,180.833 577.833,180.167 578.5,179.5 Z"/></g>
<g><path style="opacity:0.667" fill="#464646" d="M 587.5,179.5 C 586.609,180.11 585.609,180.443 584.5,180.5C 585.053,178.448 586.053,178.115 587.5,179.5 Z"/></g>
<g><path style="opacity:0.569" fill="#585858" d="M 198.5,180.5 C 199.568,179.566 200.901,179.232 202.5,179.5C 202.833,180.167 203.167,180.833 203.5,181.5C 201.708,181.634 200.042,181.301 198.5,180.5 Z"/></g>
<g><path style="opacity:0.569" fill="#242424" d="M 202.5,179.5 C 206.5,180.833 210.5,180.833 214.5,179.5C 214.167,180.167 213.833,180.833 213.5,181.5C 210.167,181.5 206.833,181.5 203.5,181.5C 203.167,180.833 202.833,180.167 202.5,179.5 Z"/></g>
<g><path style="opacity:0.569" fill="#5b5b5b" d="M 214.5,179.5 C 216.099,179.232 217.432,179.566 218.5,180.5C 216.958,181.301 215.292,181.634 213.5,181.5C 213.833,180.833 214.167,180.167 214.5,179.5 Z"/></g>
<g><path style="opacity:0.569" fill="#525252" d="M 328.5,180.5 C 329.097,179.861 329.93,179.528 331,179.5C 332.376,179.684 333.209,180.351 333.5,181.5C 331.708,181.634 330.042,181.301 328.5,180.5 Z"/></g>
<g><path style="opacity:0.569" fill="#606060" d="M 350.5,180.5 C 348.958,181.301 347.292,181.634 345.5,181.5C 346.879,179.403 348.545,179.07 350.5,180.5 Z"/></g>
<g><path style="opacity:0.569" fill="#2d2d2d" d="M 561.5,180.5 C 567.004,180.72 572.671,180.386 578.5,179.5C 577.833,180.167 577.167,180.833 576.5,181.5C 571.405,181.779 566.405,181.445 561.5,180.5 Z"/></g>
<g><path style="opacity:0.995" fill="#070707" d="M 183.5,265.5 C 183.711,267.424 184.377,267.757 185.5,266.5C 185.833,266.5 186.167,266.5 186.5,266.5C 187.183,268.176 188.517,268.843 190.5,268.5C 192.153,268.66 193.486,269.326 194.5,270.5C 197.008,272.924 200.008,274.59 203.5,275.5C 207.363,276.694 210.363,279.027 212.5,282.5C 213.167,283.833 214.167,284.833 215.5,285.5C 217.89,286.891 219.557,288.891 220.5,291.5C 220.427,293.027 221.094,294.027 222.5,294.5C 224.924,297.008 226.59,300.008 227.5,303.5C 227.386,306.216 228.386,308.216 230.5,309.5C 232.53,316.174 233.863,323.008 234.5,330C 233.768,336.223 232.768,342.39 231.5,348.5C 229.952,348.821 229.285,349.821 229.5,351.5C 229.5,352.167 229.5,352.833 229.5,353.5C 227.952,353.821 227.285,354.821 227.5,356.5C 225.685,362.292 222.685,367.292 218.5,371.5C 216.413,372.585 215.08,374.251 214.5,376.5C 214.167,377.5 213.5,378.167 212.5,378.5C 210.973,378.427 209.973,379.094 209.5,380.5C 209.167,381.5 208.5,382.167 207.5,382.5C 206.167,382.5 205.5,383.167 205.5,384.5C 200.45,387.692 195.117,390.358 189.5,392.5C 185.079,392.301 181.413,393.635 178.5,396.5C 165.317,398.319 152.317,397.652 139.5,394.5C 138.713,392.896 137.38,392.229 135.5,392.5C 134.209,392.737 133.209,392.404 132.5,391.5C 130.664,389.412 128.331,388.079 125.5,387.5C 124.508,387.672 123.842,387.338 123.5,386.5C 123.027,385.094 122.027,384.427 120.5,384.5C 116.557,382.89 113.557,380.223 111.5,376.5C 111.144,374.81 110.144,373.81 108.5,373.5C 106.453,371.45 104.786,369.117 103.5,366.5C 101.231,359.956 98.2312,353.956 94.5,348.5C 93.8413,345.545 93.5079,342.545 93.5,339.5C 94.8528,337.872 94.5195,336.538 92.5,335.5C 92.313,329.788 92.6463,324.121 93.5,318.5C 95.1511,316.598 95.4845,314.598 94.5,312.5C 94.5,312.167 94.5,311.833 94.5,311.5C 98.2312,306.044 101.231,300.044 103.5,293.5C 104.906,293.027 105.573,292.027 105.5,290.5C 106.124,288.246 107.457,286.579 109.5,285.5C 112.167,284.833 113.833,283.167 114.5,280.5C 115.579,278.457 117.246,277.124 119.5,276.5C 121.027,276.573 122.027,275.906 122.5,274.5C 122.842,273.662 123.508,273.328 124.5,273.5C 127.331,272.921 129.664,271.588 131.5,269.5C 132.78,268.069 134.447,267.402 136.5,267.5C 136.435,267.938 136.601,268.272 137,268.5C 138.57,267.642 140.237,266.975 142,266.5C 143.03,266.164 143.53,265.497 143.5,264.5C 156.902,262.925 170.235,263.258 183.5,265.5 Z M 169.5,271.5 C 170.391,272.11 171.391,272.443 172.5,272.5C 172.833,272.5 173.167,272.5 173.5,272.5C 174.391,273.11 175.391,273.443 176.5,273.5C 177.167,273.5 177.833,273.5 178.5,273.5C 179.78,274.931 181.447,275.598 183.5,275.5C 184.514,276.674 185.847,277.34 187.5,277.5C 189.147,279.326 191.147,280.66 193.5,281.5C 193.5,282.167 193.833,282.5 194.5,282.5C 196.833,285.5 199.5,288.167 202.5,290.5C 203.934,293.047 205.6,295.381 207.5,297.5C 208.326,300.485 209.659,303.151 211.5,305.5C 212.503,308.85 213.503,312.183 214.5,315.5C 214.66,318.516 214.993,321.183 215.5,323.5C 215.5,327.833 215.5,332.167 215.5,336.5C 215.167,337.833 214.833,339.167 214.5,340.5C 214.47,344.618 213.803,348.618 212.5,352.5C 210.533,356.435 208.533,360.435 206.5,364.5C 205.599,365.29 204.932,366.29 204.5,367.5C 203.094,367.973 202.427,368.973 202.5,370.5C 199.833,372.5 197.5,374.833 195.5,377.5C 193.973,377.427 192.973,378.094 192.5,379.5C 191.29,379.932 190.29,380.599 189.5,381.5C 188.167,382.167 186.833,382.833 185.5,383.5C 182.124,385.595 178.458,386.929 174.5,387.5C 173.508,387.328 172.842,387.662 172.5,388.5C 171.5,388.5 170.5,388.5 169.5,388.5C 168.209,388.263 167.209,388.596 166.5,389.5C 163.5,389.5 160.5,389.5 157.5,389.5C 156.791,388.596 155.791,388.263 154.5,388.5C 152.5,388.167 150.5,387.833 148.5,387.5C 145.251,385.972 141.918,384.639 138.5,383.5C 136.795,381.808 134.795,380.475 132.5,379.5C 132.027,378.094 131.027,377.427 129.5,377.5C 128.167,375.5 126.5,373.833 124.5,372.5C 124.573,370.973 123.906,369.973 122.5,369.5C 122.068,368.29 121.401,367.29 120.5,366.5C 120.573,364.973 119.906,363.973 118.5,363.5C 117.07,359.646 115.403,355.979 113.5,352.5C 113.5,352.167 113.5,351.833 113.5,351.5C 112.85,349.565 112.517,347.565 112.5,345.5C 111.631,343.283 111.298,340.95 111.5,338.5C 111.5,333.167 111.5,327.833 111.5,322.5C 111.298,320.05 111.631,317.717 112.5,315.5C 112.517,313.435 112.85,311.435 113.5,309.5C 114.234,308.292 114.567,306.959 114.5,305.5C 116.341,303.151 117.674,300.485 118.5,297.5C 120.153,294.869 121.819,292.203 123.5,289.5C 125.5,288.167 127.167,286.5 128.5,284.5C 130.54,282.823 132.54,281.156 134.5,279.5C 136.027,279.573 137.027,278.906 137.5,277.5C 139.5,276.833 141.5,276.167 143.5,275.5C 145.751,274.305 148.085,273.305 150.5,272.5C 156.797,271.68 163.131,271.347 169.5,271.5 Z"/></g>
<g><path style="opacity:0.839" fill="#4d4d4d" d="M 256.5,264.5 C 258.685,263.913 260.352,264.913 261.5,267.5C 259.589,266.925 257.922,265.925 256.5,264.5 Z"/></g>
<g><path style="opacity:0.996" fill="#070707" d="M 607.5,263.5 C 608.053,265.552 609.053,265.885 610.5,264.5C 611.167,264.5 611.833,264.5 612.5,264.5C 612.577,265.75 613.244,266.583 614.5,267C 616.134,267.494 617.801,267.66 619.5,267.5C 622.157,267.935 624.491,268.935 626.5,270.5C 627.287,272.104 628.62,272.771 630.5,272.5C 630.973,273.906 631.973,274.573 633.5,274.5C 636.37,275.433 638.704,277.1 640.5,279.5C 643.167,282.833 646.167,285.833 649.5,288.5C 654.949,293.723 658.616,300.056 660.5,307.5C 660.386,310.216 661.386,312.216 663.5,313.5C 666.127,324.513 666.127,335.513 663.5,346.5C 662.503,346.47 661.836,346.97 661.5,348C 660.338,351.147 659.338,354.314 658.5,357.5C 658.672,358.492 658.338,359.158 657.5,359.5C 655.412,361.336 654.079,363.669 653.5,366.5C 652.094,366.973 651.427,367.973 651.5,369.5C 648.899,373.771 645.566,377.437 641.5,380.5C 639.973,380.427 638.973,381.094 638.5,382.5C 638.5,383.167 638.167,383.5 637.5,383.5C 634.802,383.845 632.802,385.178 631.5,387.5C 631.158,388.338 630.492,388.672 629.5,388.5C 627.821,388.285 626.821,388.952 626.5,390.5C 623.715,392.095 620.715,393.095 617.5,393.5C 614.189,393.307 611.522,394.307 609.5,396.5C 598.833,397.833 588.167,397.833 577.5,396.5C 576.947,394.448 575.947,394.115 574.5,395.5C 574.167,395.5 573.833,395.5 573.5,395.5C 573.53,394.503 573.03,393.836 572,393.5C 570.869,392.665 570.036,392.665 569.5,393.5C 567.297,393.396 565.297,392.73 563.5,391.5C 562.341,389.75 560.674,388.75 558.5,388.5C 557.508,388.672 556.842,388.338 556.5,387.5C 556.027,386.094 555.027,385.427 553.5,385.5C 536.021,373.972 526.354,357.638 524.5,336.5C 525.833,332.167 525.833,327.833 524.5,323.5C 524.5,322.5 524.5,321.5 524.5,320.5C 526.552,319.947 526.885,318.947 525.5,317.5C 525.232,315.901 525.566,314.568 526.5,313.5C 528.151,311.598 528.484,309.598 527.5,307.5C 527.833,306.833 528.167,306.167 528.5,305.5C 530.176,304.817 530.843,303.483 530.5,301.5C 532.588,299.664 533.921,297.331 534.5,294.5C 534.427,292.973 535.094,291.973 536.5,291.5C 537.906,291.027 538.573,290.027 538.5,288.5C 541.833,284.5 545.5,280.833 549.5,277.5C 552.267,277.13 554.267,275.796 555.5,273.5C 556.514,272.326 557.847,271.66 559.5,271.5C 561.674,271.25 563.341,270.25 564.5,268.5C 564.833,268.5 565.167,268.5 565.5,268.5C 568.393,268.969 570.393,267.969 571.5,265.5C 583.407,263.693 595.407,263.027 607.5,263.5 Z M 605.5,272.5 C 607.701,273.566 610.035,274.233 612.5,274.5C 615.304,276.405 618.304,278.071 621.5,279.5C 623.223,281.218 625.223,282.551 627.5,283.5C 629.167,285.833 631.167,287.833 633.5,289.5C 633.427,291.027 634.094,292.027 635.5,292.5C 636.846,294.537 638.18,296.537 639.5,298.5C 640.659,302.151 642.326,305.485 644.5,308.5C 645.81,313.743 646.476,319.077 646.5,324.5C 647.726,328.822 647.726,333.155 646.5,337.5C 646.448,341.198 646.114,344.865 645.5,348.5C 644.262,350.214 643.595,352.214 643.5,354.5C 641.262,357.972 639.262,361.638 637.5,365.5C 636.026,366.436 635.026,367.77 634.5,369.5C 631.167,372.167 628.167,375.167 625.5,378.5C 621.402,381.264 617.068,383.597 612.5,385.5C 610.833,386.167 609.167,386.833 607.5,387.5C 606.833,387.5 606.167,387.5 605.5,387.5C 604.508,387.328 603.842,387.662 603.5,388.5C 602.5,388.5 601.5,388.5 600.5,388.5C 599.209,388.263 598.209,388.596 597.5,389.5C 594.833,389.5 592.167,389.5 589.5,389.5C 588.791,388.596 587.791,388.263 586.5,388.5C 585.833,388.5 585.167,388.5 584.5,388.5C 583.609,387.89 582.609,387.557 581.5,387.5C 579.883,386.962 578.216,386.629 576.5,386.5C 573.485,384.326 570.151,382.659 566.5,381.5C 566.027,380.094 565.027,379.427 563.5,379.5C 563.5,378.833 563.167,378.5 562.5,378.5C 560.167,375.5 557.5,372.833 554.5,370.5C 554.573,368.973 553.906,367.973 552.5,367.5C 552.573,365.973 551.906,364.973 550.5,364.5C 550.672,363.508 550.338,362.842 549.5,362.5C 547.48,357.424 545.48,352.424 543.5,347.5C 543.5,347.167 543.5,346.833 543.5,346.5C 543.632,343.43 543.299,340.43 542.5,337.5C 542.5,332.833 542.5,328.167 542.5,323.5C 543.038,321.883 543.371,320.216 543.5,318.5C 543.704,315.482 544.037,312.482 544.5,309.5C 546.011,306.995 547.345,304.328 548.5,301.5C 549.758,299.313 550.758,296.98 551.5,294.5C 552.5,294.167 553.167,293.5 553.5,292.5C 553.5,292.167 553.5,291.833 553.5,291.5C 554.906,291.027 555.573,290.027 555.5,288.5C 557.833,286.833 559.833,284.833 561.5,282.5C 563.027,282.573 564.027,281.906 564.5,280.5C 566.434,279.89 568.101,278.89 569.5,277.5C 573.76,275.636 578.093,273.969 582.5,272.5C 590.174,271.207 597.841,271.207 605.5,272.5 Z"/></g>
<g><path style="opacity:0.561" fill="#595959" d="M 19.5,265.5 C 14.3054,265.179 9.30537,265.513 4.5,266.5C 4.5,309.5 4.5,352.5 4.5,395.5C 3.88258,395.389 3.38258,395.056 3,394.5C 2.33333,351.5 2.33333,308.5 3,265.5C 8.59916,264.175 14.0992,264.175 19.5,265.5 Z"/></g>
<g><path style="opacity:0.98" fill="#030303" d="M 256.5,264.5 C 257.922,265.925 259.589,266.925 261.5,267.5C 262.833,270.833 265.167,273.167 268.5,274.5C 278.167,283.5 287.5,292.833 296.5,302.5C 303.833,310.5 311.5,318.167 319.5,325.5C 321.569,328.573 324.236,330.906 327.5,332.5C 337.167,341.833 346.833,351.167 356.5,360.5C 356.427,362.027 357.094,363.027 358.5,363.5C 358.811,364.478 359.478,365.145 360.5,365.5C 361.5,332.507 361.833,299.507 361.5,266.5C 363.833,266.5 366.167,266.5 368.5,266.5C 368.5,309.5 368.5,352.5 368.5,395.5C 365.767,392.761 362.767,390.427 359.5,388.5C 349.5,379.167 339.833,369.5 330.5,359.5C 323.5,351.833 316.167,344.5 308.5,337.5C 306.431,334.427 303.764,332.094 300.5,330.5C 290.833,321.5 281.5,312.167 272.5,302.5C 272.5,300.5 271.5,299.5 269.5,299.5C 268.206,298.71 267.039,297.71 266,296.5C 265.667,329.167 265.333,361.833 265,394.5C 262.281,395.444 259.448,395.777 256.5,395.5C 256.5,351.833 256.5,308.167 256.5,264.5 Z"/></g>
<g><path style="opacity:0.871" fill="#454545" d="M 607.5,263.5 C 608.391,264.11 609.391,264.443 610.5,264.5C 609.053,265.885 608.053,265.552 607.5,263.5 Z"/></g>
<g><path style="opacity:1" fill="#353535" d="M 689.5,264.5 C 689.5,308.167 689.5,351.833 689.5,395.5C 688.883,395.389 688.383,395.056 688,394.5C 687.167,350.83 687.333,307.163 688.5,263.5C 689.107,263.624 689.44,263.957 689.5,264.5 Z"/></g>
<g><path style="opacity:0.977" fill="#020202" d="M 689.5,264.5 C 693.833,268.5 698.167,272.5 702.5,276.5C 702.369,277.239 702.536,277.906 703,278.5C 710.089,286.094 717.589,293.094 725.5,299.5C 726.833,302.833 729.167,305.167 732.5,306.5C 742.5,315.833 752.167,325.5 761.5,335.5C 770.964,345.465 780.631,355.298 790.5,365C 791.635,365.749 792.635,365.583 793.5,364.5C 793.376,363.893 793.043,363.56 792.5,363.5C 792.5,331.167 792.5,298.833 792.5,266.5C 795.167,266.5 797.833,266.5 800.5,266.5C 801.665,309.665 801.831,352.998 801,396.5C 800.667,396.833 800.333,397.167 800,397.5C 798.293,395.963 796.793,394.296 795.5,392.5C 788.5,384.833 781.167,377.5 773.5,370.5C 771.1,367.097 768.1,364.43 764.5,362.5C 742.059,340.391 719.726,318.391 697.5,296.5C 697.44,295.957 697.107,295.624 696.5,295.5C 695.5,328.827 695.167,362.16 695.5,395.5C 693.5,395.5 691.5,395.5 689.5,395.5C 689.5,351.833 689.5,308.167 689.5,264.5 Z"/></g>
<g><path style="opacity:1" fill="#5e5e5e" d="M 453.5,265.5 C 438.009,266.496 422.342,266.83 406.5,266.5C 413.803,265.169 421.47,264.502 429.5,264.5C 437.576,264.515 445.576,264.848 453.5,265.5 Z"/></g>
<g><path style="opacity:0.984" fill="#030303" d="M 453.5,265.5 C 455.167,265.5 456.833,265.5 458.5,265.5C 458.62,266.586 459.287,267.253 460.5,267.5C 461.416,267.457 462.083,267.124 462.5,266.5C 463.167,266.5 463.833,266.5 464.5,266.5C 465.053,268.552 466.053,268.885 467.5,267.5C 467.833,267.5 468.167,267.5 468.5,267.5C 469.552,269.256 471.219,269.923 473.5,269.5C 475.214,270.738 477.214,271.405 479.5,271.5C 480.609,271.557 481.609,271.89 482.5,272.5C 484.418,275.138 487.085,276.805 490.5,277.5C 490.973,278.906 491.973,279.573 493.5,279.5C 494.167,279.5 494.5,279.833 494.5,280.5C 494.973,281.906 495.973,282.573 497.5,282.5C 499.833,284.167 501.833,286.167 503.5,288.5C 503.427,290.027 504.094,291.027 505.5,291.5C 507.95,293.629 509.617,296.296 510.5,299.5C 510.427,301.027 511.094,302.027 512.5,302.5C 513.73,304.297 514.396,306.297 514.5,308.5C 514.285,310.179 514.952,311.179 516.5,311.5C 519.126,323.827 519.126,336.161 516.5,348.5C 514.163,350.507 512.829,353.173 512.5,356.5C 512.5,356.833 512.5,357.167 512.5,357.5C 511.094,357.973 510.427,358.973 510.5,360.5C 509.617,363.704 507.95,366.371 505.5,368.5C 504.094,368.973 503.427,369.973 503.5,371.5C 503.5,372.167 503.167,372.5 502.5,372.5C 501.167,373.167 500.167,374.167 499.5,375.5C 498.5,377.167 497.167,378.5 495.5,379.5C 493.973,379.427 492.973,380.094 492.5,381.5C 492.027,382.906 491.027,383.573 489.5,383.5C 485.43,384.524 482.096,386.524 479.5,389.5C 475.033,391.451 470.367,392.784 465.5,393.5C 464.377,392.243 463.711,392.576 463.5,394.5C 462.5,394.5 461.5,394.5 460.5,394.5C 443.034,394.422 425.368,394.422 407.5,394.5C 407.832,351.997 407.499,309.663 406.5,267.5C 405.167,267.167 405.167,266.833 406.5,266.5C 422.342,266.83 438.009,266.496 453.5,265.5 Z M 424.5,273.5 C 431.833,273.5 439.167,273.5 446.5,273.5C 448.042,274.301 449.708,274.634 451.5,274.5C 452.5,274.5 453.5,274.5 454.5,274.5C 455.391,275.11 456.391,275.443 457.5,275.5C 459.861,275.674 462.194,276.007 464.5,276.5C 466.181,278.008 468.181,279.008 470.5,279.5C 471.391,280.11 472.391,280.443 473.5,280.5C 474.436,281.974 475.77,282.974 477.5,283.5C 480.141,285.804 482.808,288.138 485.5,290.5C 486.026,292.23 487.026,293.564 488.5,294.5C 491.097,298.034 493.43,301.7 495.5,305.5C 495.928,308.785 496.928,311.785 498.5,314.5C 498.5,315.167 498.5,315.833 498.5,316.5C 498.674,318.861 499.007,321.194 499.5,323.5C 499.5,328.167 499.5,332.833 499.5,337.5C 499.007,339.806 498.674,342.139 498.5,344.5C 498.5,345.167 498.5,345.833 498.5,346.5C 497.323,348.679 496.323,351.013 495.5,353.5C 493.942,358.284 491.609,362.618 488.5,366.5C 487.094,366.973 486.427,367.973 486.5,369.5C 484.833,370.5 483.5,371.833 482.5,373.5C 480.77,374.026 479.436,375.026 478.5,376.5C 476.999,377.752 475.332,378.752 473.5,379.5C 470.101,381.199 466.768,382.866 463.5,384.5C 460.833,384.833 458.167,385.167 455.5,385.5C 454.167,385.833 452.833,386.167 451.5,386.5C 450.167,386.5 448.833,386.5 447.5,386.5C 439.5,386.5 431.5,386.5 423.5,386.5C 423.5,349.5 423.5,312.5 423.5,275.5C 423.328,274.508 423.662,273.842 424.5,273.5 Z"/></g>
<g><path style="opacity:0.991" fill="#5d5d5d" d="M 800.5,266.5 C 797.833,266.5 795.167,266.5 792.5,266.5C 793.492,264.974 794.992,264.307 797,264.5C 798.681,264.608 799.848,265.275 800.5,266.5 Z"/></g>
<g><path style="opacity:0.984" fill="#010101" d="M 4.5,266.5 C 9.16667,266.5 13.8333,266.5 18.5,266.5C 18.5,306.167 18.5,345.833 18.5,385.5C 19.791,385.737 20.791,385.404 21.5,384.5C 42.8333,384.5 64.1667,384.5 85.5,384.5C 85.5,388.167 85.5,391.833 85.5,395.5C 58.5,395.5 31.5,395.5 4.5,395.5C 4.5,352.5 4.5,309.5 4.5,266.5 Z"/></g>
<g><path style="opacity:1" fill="#4f4f4f" d="M 183.5,265.5 C 184.492,265.328 185.158,265.662 185.5,266.5C 184.377,267.757 183.711,267.424 183.5,265.5 Z"/></g>
<g><path style="opacity:0.946" fill="#616161" d="M 367.5,396.5 C 368.167,396.5 368.5,396.167 368.5,395.5C 368.5,352.5 368.5,309.5 368.5,266.5C 366.167,266.5 363.833,266.5 361.5,266.5C 361.833,299.507 361.5,332.507 360.5,365.5C 359.478,365.145 358.811,364.478 358.5,363.5C 360.328,331.182 361.161,298.515 361,265.5C 363.667,264.167 366.333,264.167 369,265.5C 369.833,309.504 369.667,353.504 368.5,397.5C 367.893,397.376 367.56,397.043 367.5,396.5 Z"/></g>
<g><path style="opacity:0.894" fill="#404040" d="M 458.5,265.5 C 459.959,265.433 461.292,265.766 462.5,266.5C 462.083,267.124 461.416,267.457 460.5,267.5C 459.287,267.253 458.62,266.586 458.5,265.5 Z"/></g>
<g><path style="opacity:1" fill="#353535" d="M 612.5,264.5 C 614.987,265.323 617.321,266.323 619.5,267.5C 617.801,267.66 616.134,267.494 614.5,267C 613.244,266.583 612.577,265.75 612.5,264.5 Z"/></g>
<g><path style="opacity:1" fill="#4c4c4c" d="M 4.5,266.5 C 9.30537,265.513 14.3054,265.179 19.5,265.5C 20.1667,305.167 20.8333,344.833 21.5,384.5C 20.791,385.404 19.791,385.737 18.5,385.5C 18.5,345.833 18.5,306.167 18.5,266.5C 13.8333,266.5 9.16667,266.5 4.5,266.5 Z"/></g>
<g><path style="opacity:1" fill="#3c3c3c" d="M 143.5,264.5 C 143.53,265.497 143.03,266.164 142,266.5C 140.237,266.975 138.57,267.642 137,268.5C 136.601,268.272 136.435,267.938 136.5,267.5C 138.679,266.323 141.013,265.323 143.5,264.5 Z"/></g>
<g><path style="opacity:1" fill="#484848" d="M 186.5,266.5 C 187.995,266.989 189.329,267.655 190.5,268.5C 188.517,268.843 187.183,268.176 186.5,266.5 Z"/></g>
<g><path style="opacity:1" fill="#282828" d="M 406.5,267.5 C 407.499,309.663 407.832,351.997 407.5,394.5C 425.368,394.422 443.034,394.422 460.5,394.5C 442.574,395.652 424.574,395.819 406.5,395C 406.043,394.586 405.709,394.086 405.5,393.5C 406.494,351.543 406.828,309.543 406.5,267.5 Z"/></g>
<g><path style="opacity:1" fill="#474747" d="M 464.5,266.5 C 465.609,266.557 466.609,266.89 467.5,267.5C 466.053,268.885 465.053,268.552 464.5,266.5 Z"/></g>
<g><path style="opacity:1" fill="#3a3a3a" d="M 571.5,265.5 C 570.393,267.969 568.393,268.969 565.5,268.5C 567.25,267.13 569.25,266.13 571.5,265.5 Z"/></g>
<g><path style="opacity:1" fill="#373737" d="M 261.5,267.5 C 264.167,269.5 266.5,271.833 268.5,274.5C 265.167,273.167 262.833,270.833 261.5,267.5 Z"/></g>
<g><path style="opacity:1" fill="#404040" d="M 468.5,267.5 C 470.403,267.796 472.07,268.463 473.5,269.5C 471.219,269.923 469.552,269.256 468.5,267.5 Z"/></g>
<g><path style="opacity:0.878" fill="#4a4a4a" d="M 564.5,268.5 C 563.341,270.25 561.674,271.25 559.5,271.5C 560.659,269.75 562.326,268.75 564.5,268.5 Z"/></g>
<g><path style="opacity:1" fill="#505050" d="M 473.5,269.5 C 475.898,269.259 477.898,269.926 479.5,271.5C 477.214,271.405 475.214,270.738 473.5,269.5 Z"/></g>
<g><path style="opacity:1" fill="#363636" d="M 131.5,269.5 C 129.664,271.588 127.331,272.921 124.5,273.5C 126.336,271.412 128.669,270.079 131.5,269.5 Z"/></g>
<g><path style="opacity:0.843" fill="#4d4d4d" d="M 169.5,271.5 C 170.947,270.115 171.947,270.448 172.5,272.5C 171.391,272.443 170.391,272.11 169.5,271.5 Z"/></g>
<g><path style="opacity:0.988" fill="#4b4b4b" d="M 626.5,270.5 C 628.153,270.66 629.486,271.326 630.5,272.5C 628.62,272.771 627.287,272.104 626.5,270.5 Z"/></g>
<g><path style="opacity:0.984" fill="#3d3d3d" d="M 150.5,272.5 C 148.085,273.305 145.751,274.305 143.5,275.5C 143.577,274.25 144.244,273.417 145.5,273C 146.872,272.598 148.205,272.098 149.5,271.5C 150.107,271.624 150.44,271.957 150.5,272.5 Z"/></g>
<g><path style="opacity:0.753" fill="#484848" d="M 173.5,272.5 C 174.947,271.115 175.947,271.448 176.5,273.5C 175.391,273.443 174.391,273.11 173.5,272.5 Z"/></g>
<g><path style="opacity:1" fill="#363636" d="M 194.5,270.5 C 197.992,271.41 200.992,273.076 203.5,275.5C 200.008,274.59 197.008,272.924 194.5,270.5 Z"/></g>
<g><path style="opacity:0.931" fill="#4d4d4d" d="M 424.5,273.5 C 423.662,273.842 423.328,274.508 423.5,275.5C 422.224,274.614 422.224,273.614 423.5,272.5C 424.107,272.624 424.44,272.957 424.5,273.5 Z"/></g>
<g><path style="opacity:0.745" fill="#353535" d="M 605.5,272.5 C 605.56,271.957 605.893,271.624 606.5,271.5C 608.78,272.136 610.78,273.136 612.5,274.5C 610.035,274.233 607.701,273.566 605.5,272.5 Z"/></g>
<g><path style="opacity:0.486" fill="#434343" d="M 630.5,272.5 C 632.027,272.427 633.027,273.094 633.5,274.5C 631.973,274.573 630.973,273.906 630.5,272.5 Z"/></g>
<g><path style="opacity:0.627" fill="#646464" d="M 446.5,273.5 C 448.455,272.07 450.121,272.403 451.5,274.5C 449.708,274.634 448.042,274.301 446.5,273.5 Z"/></g>
<g><path style="opacity:0.537" fill="#494949" d="M 178.5,273.5 C 180.553,273.402 182.22,274.069 183.5,275.5C 181.447,275.598 179.78,274.931 178.5,273.5 Z"/></g>
<g><path style="opacity:0.541" fill="#515151" d="M 454.5,274.5 C 455.947,273.115 456.947,273.448 457.5,275.5C 456.391,275.443 455.391,275.11 454.5,274.5 Z"/></g>
<g><path style="opacity:0.931" fill="#404040" d="M 482.5,272.5 C 485.511,273.669 488.178,275.336 490.5,277.5C 487.085,276.805 484.418,275.138 482.5,272.5 Z"/></g>
<g><path style="opacity:0.867" fill="#3d3d3d" d="M 582.5,272.5 C 578.093,273.969 573.76,275.636 569.5,277.5C 573.256,273.768 577.59,272.101 582.5,272.5 Z"/></g>
<g><path style="opacity:1" fill="#494949" d="M 122.5,274.5 C 122.027,275.906 121.027,276.573 119.5,276.5C 119.973,275.094 120.973,274.427 122.5,274.5 Z"/></g>
<g><path style="opacity:0.922" fill="#434343" d="M 464.5,276.5 C 467.393,276.031 469.393,277.031 470.5,279.5C 468.181,279.008 466.181,278.008 464.5,276.5 Z"/></g>
<g><path style="opacity:0.749" fill="#3f3f3f" d="M 555.5,273.5 C 554.267,275.796 552.267,277.13 549.5,277.5C 551.147,275.674 553.147,274.34 555.5,273.5 Z"/></g>
<g><path style="opacity:1" fill="#575757" d="M 702.5,276.5 C 710.5,283.833 718.167,291.5 725.5,299.5C 717.589,293.094 710.089,286.094 703,278.5C 702.536,277.906 702.369,277.239 702.5,276.5 Z"/></g>
<g><path style="opacity:0.533" fill="#464646" d="M 137.5,277.5 C 137.027,278.906 136.027,279.573 134.5,279.5C 134.973,278.094 135.973,277.427 137.5,277.5 Z"/></g>
<g><path style="opacity:1" fill="#474747" d="M 187.5,277.5 C 190.198,277.845 192.198,279.178 193.5,281.5C 191.147,280.66 189.147,279.326 187.5,277.5 Z"/></g>
<g><path style="opacity:0.671" fill="#4d4d4d" d="M 490.5,277.5 C 492.027,277.427 493.027,278.094 493.5,279.5C 491.973,279.573 490.973,278.906 490.5,277.5 Z"/></g>
<g><path style="opacity:1" fill="#454545" d="M 473.5,280.5 C 475.632,280.554 476.965,281.554 477.5,283.5C 475.77,282.974 474.436,281.974 473.5,280.5 Z"/></g>
<g><path style="opacity:0.573" fill="#575757" d="M 494.5,280.5 C 496.027,280.427 497.027,281.094 497.5,282.5C 495.973,282.573 494.973,281.906 494.5,280.5 Z"/></g>
<g><path style="opacity:0.776" fill="#545454" d="M 564.5,280.5 C 564.027,281.906 563.027,282.573 561.5,282.5C 561.973,281.094 562.973,280.427 564.5,280.5 Z"/></g>
<g><path style="opacity:0.537" fill="#7c7c7c" d="M 212.5,282.5 C 214.5,282.5 215.5,283.5 215.5,285.5C 214.167,284.833 213.167,283.833 212.5,282.5 Z"/></g>
<g><path style="opacity:0.906" fill="#565656" d="M 621.5,279.5 C 624.292,279.622 626.292,280.956 627.5,283.5C 625.223,282.551 623.223,281.218 621.5,279.5 Z"/></g>
<g><path style="opacity:0.627" fill="#4e4e4e" d="M 640.5,279.5 C 644.5,281.5 647.5,284.5 649.5,288.5C 646.167,285.833 643.167,282.833 640.5,279.5 Z"/></g>
<g><path style="opacity:1" fill="#424242" d="M 114.5,280.5 C 113.833,283.167 112.167,284.833 109.5,285.5C 110.833,283.5 112.5,281.833 114.5,280.5 Z"/></g>
<g><path style="opacity:1" fill="#5d5d5d" d="M 194.5,282.5 C 198.167,284.167 200.833,286.833 202.5,290.5C 199.5,288.167 196.833,285.5 194.5,282.5 Z"/></g>
<g><path style="opacity:0.824" fill="#525252" d="M 128.5,284.5 C 127.167,286.5 125.5,288.167 123.5,289.5C 124.167,286.833 125.833,285.167 128.5,284.5 Z"/></g>
<g><path style="opacity:0.992" fill="#646464" d="M 503.5,288.5 C 504.906,288.973 505.573,289.973 505.5,291.5C 504.094,291.027 503.427,290.027 503.5,288.5 Z"/></g>
<g><path style="opacity:0.941" fill="#434343" d="M 538.5,288.5 C 538.573,290.027 537.906,291.027 536.5,291.5C 536.427,289.973 537.094,288.973 538.5,288.5 Z"/></g>
<g><path style="opacity:0.816" fill="#4f4f4f" d="M 555.5,288.5 C 555.573,290.027 554.906,291.027 553.5,291.5C 553.427,289.973 554.094,288.973 555.5,288.5 Z"/></g>
<g><path style="opacity:0.643" fill="#626262" d="M 633.5,289.5 C 634.906,289.973 635.573,290.973 635.5,292.5C 634.094,292.027 633.427,291.027 633.5,289.5 Z"/></g>
<g><path style="opacity:0.918" fill="#595959" d="M 105.5,290.5 C 105.573,292.027 104.906,293.027 103.5,293.5C 103.427,291.973 104.094,290.973 105.5,290.5 Z"/></g>
<g><path style="opacity:0.518" fill="#585858" d="M 485.5,290.5 C 487.446,291.035 488.446,292.368 488.5,294.5C 487.026,293.564 486.026,292.23 485.5,290.5 Z"/></g>
<g><path style="opacity:0.969" fill="#444444" d="M 220.5,291.5 C 221.906,291.973 222.573,292.973 222.5,294.5C 221.094,294.027 220.427,293.027 220.5,291.5 Z"/></g>
<g><path style="opacity:0.718" fill="#5d5d5d" d="M 553.5,292.5 C 553.167,293.5 552.5,294.167 551.5,294.5C 551.5,293.167 552.167,292.5 553.5,292.5 Z"/></g>
<g><path style="opacity:1" fill="#727272" d="M 697.5,296.5 C 696.833,329.5 696.167,362.5 695.5,395.5C 695.167,362.16 695.5,328.827 696.5,295.5C 697.107,295.624 697.44,295.957 697.5,296.5 Z"/></g>
<g><path style="opacity:0.808" fill="#393939" d="M 534.5,294.5 C 533.921,297.331 532.588,299.664 530.5,301.5C 531.079,298.669 532.412,296.336 534.5,294.5 Z"/></g>
<g><path style="opacity:0.851" fill="#424242" d="M 103.5,293.5 C 101.231,300.044 98.2312,306.044 94.5,311.5C 96.4628,304.908 99.4628,298.908 103.5,293.5 Z"/></g>
<g><path style="opacity:0.835" fill="#464646" d="M 207.5,297.5 C 209.873,299.579 211.206,302.246 211.5,305.5C 209.659,303.151 208.326,300.485 207.5,297.5 Z"/></g>
<g><path style="opacity:1" fill="#464646" d="M 269.5,299.5 C 271.5,299.5 272.5,300.5 272.5,302.5C 271.167,301.833 270.167,300.833 269.5,299.5 Z"/></g>
<g><path style="opacity:0.792" fill="#454545" d="M 639.5,298.5 C 642.207,301.247 643.873,304.58 644.5,308.5C 642.326,305.485 640.659,302.151 639.5,298.5 Z"/></g>
<g><path style="opacity:1" fill="#3a3a3a" d="M 725.5,299.5 C 728.167,301.5 730.5,303.833 732.5,306.5C 729.167,305.167 726.833,302.833 725.5,299.5 Z"/></g>
<g><path style="opacity:0.847" fill="#545454" d="M 118.5,297.5 C 117.674,300.485 116.341,303.151 114.5,305.5C 114.062,305.565 113.728,305.399 113.5,305C 114.818,302.176 116.485,299.676 118.5,297.5 Z"/></g>
<g><path style="opacity:0.835" fill="#5f5f5f" d="M 510.5,299.5 C 511.906,299.973 512.573,300.973 512.5,302.5C 511.094,302.027 510.427,301.027 510.5,299.5 Z"/></g>
<g><path style="opacity:0.824" fill="#434343" d="M 530.5,301.5 C 530.843,303.483 530.176,304.817 528.5,305.5C 528.66,303.847 529.326,302.514 530.5,301.5 Z"/></g>
<g><path style="opacity:0.875" fill="#555555" d="M 548.5,301.5 C 547.345,304.328 546.011,306.995 544.5,309.5C 544.292,305.915 545.625,303.249 548.5,301.5 Z"/></g>
<g><path style="opacity:0.886" fill="#313131" d="M 227.5,303.5 C 228.87,305.25 229.87,307.25 230.5,309.5C 228.386,308.216 227.386,306.216 227.5,303.5 Z"/></g>
<g><path style="opacity:1" fill="#3f3f3f" d="M 495.5,305.5 C 497.868,307.956 498.868,310.956 498.5,314.5C 496.928,311.785 495.928,308.785 495.5,305.5 Z"/></g>
<g><path style="opacity:0.886" fill="#565656" d="M 514.5,308.5 C 515.401,309.29 516.068,310.29 516.5,311.5C 514.952,311.179 514.285,310.179 514.5,308.5 Z"/></g>
<g><path style="opacity:1" fill="#393939" d="M 527.5,307.5 C 528.484,309.598 528.151,311.598 526.5,313.5C 526.325,311.379 526.659,309.379 527.5,307.5 Z"/></g>
<g><path style="opacity:1" fill="#444444" d="M 113.5,309.5 C 112.85,311.435 112.517,313.435 112.5,315.5C 111.853,314.726 111.52,313.726 111.5,312.5C 111.64,310.97 112.307,309.97 113.5,309.5 Z"/></g>
<g><path style="opacity:0.675" fill="#5d5d5d" d="M 296.5,302.5 C 305.112,309.444 313.112,317.111 320.5,325.5C 320.167,325.5 319.833,325.5 319.5,325.5C 311.5,318.167 303.833,310.5 296.5,302.5 Z"/></g>
<g><path style="opacity:0.725" fill="#3f3f3f" d="M 660.5,307.5 C 661.87,309.25 662.87,311.25 663.5,313.5C 661.386,312.216 660.386,310.216 660.5,307.5 Z"/></g>
<g><path style="opacity:1" fill="#333333" d="M 94.5,312.5 C 95.4845,314.598 95.1511,316.598 93.5,318.5C 93.5172,316.435 93.8505,314.435 94.5,312.5 Z"/></g>
<g><path style="opacity:1" fill="#353535" d="M 214.5,315.5 C 216.413,318.04 216.746,320.707 215.5,323.5C 214.993,321.183 214.66,318.516 214.5,315.5 Z"/></g>
<g><path style="opacity:1" fill="#404040" d="M 525.5,317.5 C 526.885,318.947 526.552,319.947 524.5,320.5C 524.263,319.209 524.596,318.209 525.5,317.5 Z"/></g>
<g><path style="opacity:0.451" fill="#404040" d="M 498.5,316.5 C 500.312,318.713 500.645,321.047 499.5,323.5C 499.007,321.194 498.674,318.861 498.5,316.5 Z"/></g>
<g><path style="opacity:0.957" fill="#585858" d="M 543.5,318.5 C 543.371,320.216 543.038,321.883 542.5,323.5C 541.861,322.903 541.528,322.07 541.5,321C 541.684,319.624 542.351,318.791 543.5,318.5 Z"/></g>
<g><path style="opacity:0.667" fill="#3f3f3f" d="M 319.5,325.5 C 319.833,325.5 320.167,325.5 320.5,325.5C 323.167,327.5 325.5,329.833 327.5,332.5C 324.236,330.906 321.569,328.573 319.5,325.5 Z"/></g>
<g><path style="opacity:1" fill="#3f3f3f" d="M 524.5,323.5 C 525.833,327.833 525.833,332.167 524.5,336.5C 523.167,332.167 523.167,327.833 524.5,323.5 Z"/></g>
<g><path style="opacity:1" fill="#444444" d="M 300.5,330.5 C 303.764,332.094 306.431,334.427 308.5,337.5C 308.167,337.5 307.833,337.5 307.5,337.5C 304.833,335.5 302.5,333.167 300.5,330.5 Z"/></g>
<g><path style="opacity:1" fill="#656565" d="M 111.5,322.5 C 111.5,327.833 111.5,333.167 111.5,338.5C 110.883,338.389 110.383,338.056 110,337.5C 109.333,332.833 109.333,328.167 110,323.5C 110.383,322.944 110.883,322.611 111.5,322.5 Z"/></g>
<g><path style="opacity:1" fill="#444444" d="M 646.5,324.5 C 647.794,326.048 648.461,328.048 648.5,330.5C 648.333,332.5 648.167,334.5 648,336.5C 647.617,337.056 647.117,337.389 646.5,337.5C 647.726,333.155 647.726,328.822 646.5,324.5 Z"/></g>
<g><path style="opacity:1" fill="#3e3e3e" d="M 92.5,335.5 C 94.5195,336.538 94.8528,337.872 93.5,339.5C 92.5655,338.432 92.2322,337.099 92.5,335.5 Z"/></g>
<g><path style="opacity:1" fill="#646464" d="M 307.5,337.5 C 307.833,337.5 308.167,337.5 308.5,337.5C 316.167,344.5 323.5,351.833 330.5,359.5C 322.221,352.89 314.555,345.556 307.5,337.5 Z"/></g>
<g><path style="opacity:1" fill="#525252" d="M 215.5,336.5 C 216.124,336.917 216.457,337.584 216.5,338.5C 216.253,339.713 215.586,340.38 214.5,340.5C 214.833,339.167 215.167,337.833 215.5,336.5 Z"/></g>
<g><path style="opacity:1" fill="#333333" d="M 499.5,337.5 C 500.645,339.953 500.312,342.287 498.5,344.5C 498.674,342.139 499.007,339.806 499.5,337.5 Z"/></g>
<g><path style="opacity:1" fill="#313131" d="M 542.5,337.5 C 543.299,340.43 543.632,343.43 543.5,346.5C 541.518,343.627 541.185,340.627 542.5,337.5 Z"/></g>
<g><path style="opacity:0.647" fill="#595959" d="M 761.5,335.5 C 771.833,344.833 782.167,354.167 792.5,363.5C 793.043,363.56 793.376,363.893 793.5,364.5C 792.635,365.583 791.635,365.749 790.5,365C 780.631,355.298 770.964,345.465 761.5,335.5 Z"/></g>
<g><path style="opacity:0.965" fill="#2f2f2f" d="M 112.5,345.5 C 112.517,347.565 112.85,349.565 113.5,351.5C 112.307,351.03 111.64,350.03 111.5,348.5C 111.52,347.274 111.853,346.274 112.5,345.5 Z"/></g>
<g><path style="opacity:0.953" fill="#4f4f4f" d="M 231.5,348.5 C 231.068,349.71 230.401,350.71 229.5,351.5C 229.285,349.821 229.952,348.821 231.5,348.5 Z"/></g>
<g><path style="opacity:0.918" fill="#545454" d="M 516.5,348.5 C 515.677,351.48 514.343,354.147 512.5,356.5C 512.829,353.173 514.163,350.507 516.5,348.5 Z"/></g>
<g><path style="opacity:0.984" fill="#3a3a3a" d="M 543.5,347.5 C 545.48,352.424 547.48,357.424 549.5,362.5C 545.596,358.345 543.596,353.345 543.5,347.5 Z"/></g>
<g><path style="opacity:0.961" fill="#424242" d="M 498.5,346.5 C 498.66,348.199 498.494,349.866 498,351.5C 497.583,352.756 496.75,353.423 495.5,353.5C 496.323,351.013 497.323,348.679 498.5,346.5 Z"/></g>
<g><path style="opacity:1" fill="#3e3e3e" d="M 645.5,348.5 C 645.741,350.898 645.074,352.898 643.5,354.5C 643.595,352.214 644.262,350.214 645.5,348.5 Z"/></g>
<g><path style="opacity:0.961" fill="#424242" d="M 663.5,346.5 C 662.398,350.492 660.732,354.159 658.5,357.5C 659.338,354.314 660.338,351.147 661.5,348C 661.836,346.97 662.503,346.47 663.5,346.5 Z"/></g>
<g><path style="opacity:0.941" fill="#434343" d="M 229.5,353.5 C 229.068,354.71 228.401,355.71 227.5,356.5C 227.285,354.821 227.952,353.821 229.5,353.5 Z"/></g>
<g><path style="opacity:0.712" fill="#3e3e3e" d="M 113.5,352.5 C 115.403,355.979 117.07,359.646 118.5,363.5C 115.504,360.503 113.837,356.836 113.5,352.5 Z"/></g>
<g><path style="opacity:0.831" fill="#333333" d="M 212.5,352.5 C 212.044,357.413 210.044,361.413 206.5,364.5C 208.533,360.435 210.533,356.435 212.5,352.5 Z"/></g>
<g><path style="opacity:0.898" fill="#5a5a5a" d="M 512.5,357.5 C 512.573,359.027 511.906,360.027 510.5,360.5C 510.427,358.973 511.094,357.973 512.5,357.5 Z"/></g>
<g><path style="opacity:0.8" fill="#272727" d="M 643.5,354.5 C 642.756,358.997 640.756,362.664 637.5,365.5C 639.262,361.638 641.262,357.972 643.5,354.5 Z"/></g>
<g><path style="opacity:1" fill="#343434" d="M 94.5,348.5 C 98.2312,353.956 101.231,359.956 103.5,366.5C 99.4628,361.092 96.4628,355.092 94.5,348.5 Z"/></g>
<g><path style="opacity:1" fill="#757575" d="M 356.5,360.5 C 357.906,360.973 358.573,361.973 358.5,363.5C 357.094,363.027 356.427,362.027 356.5,360.5 Z"/></g>
<g><path style="opacity:1" fill="#444444" d="M 764.5,362.5 C 768.1,364.43 771.1,367.097 773.5,370.5C 773.167,370.5 772.833,370.5 772.5,370.5C 769.5,368.167 766.833,365.5 764.5,362.5 Z"/></g>
<g><path style="opacity:0.827" fill="#5b5b5b" d="M 118.5,363.5 C 119.906,363.973 120.573,364.973 120.5,366.5C 118.952,366.179 118.285,365.179 118.5,363.5 Z"/></g>
<g><path style="opacity:0.82" fill="#3d3d3d" d="M 657.5,359.5 C 656.921,362.331 655.588,364.664 653.5,366.5C 654.079,363.669 655.412,361.336 657.5,359.5 Z"/></g>
<g><path style="opacity:1" fill="#404040" d="M 206.5,364.5 C 206.715,366.179 206.048,367.179 204.5,367.5C 204.932,366.29 205.599,365.29 206.5,364.5 Z"/></g>
<g><path style="opacity:0.863" fill="#474747" d="M 550.5,364.5 C 551.906,364.973 552.573,365.973 552.5,367.5C 551.094,367.027 550.427,366.027 550.5,364.5 Z"/></g>
<g><path style="opacity:0.906" fill="#686868" d="M 488.5,366.5 C 488.573,368.027 487.906,369.027 486.5,369.5C 486.427,367.973 487.094,366.973 488.5,366.5 Z"/></g>
<g><path style="opacity:0.78" fill="#494949" d="M 653.5,366.5 C 653.573,368.027 652.906,369.027 651.5,369.5C 651.427,367.973 652.094,366.973 653.5,366.5 Z"/></g>
<g><path style="opacity:0.961" fill="#525252" d="M 204.5,367.5 C 204.573,369.027 203.906,370.027 202.5,370.5C 202.427,368.973 203.094,367.973 204.5,367.5 Z"/></g>
<g><path style="opacity:1" fill="#555555" d="M 122.5,369.5 C 123.906,369.973 124.573,370.973 124.5,372.5C 123.094,372.027 122.427,371.027 122.5,369.5 Z"/></g>
<g><path style="opacity:0.647" fill="#414141" d="M 505.5,368.5 C 505.573,370.027 504.906,371.027 503.5,371.5C 503.427,369.973 504.094,368.973 505.5,368.5 Z"/></g>
<g><path style="opacity:1" fill="#656565" d="M 772.5,370.5 C 772.833,370.5 773.167,370.5 773.5,370.5C 781.167,377.5 788.5,384.833 795.5,392.5C 787.221,385.89 779.555,378.556 772.5,370.5 Z"/></g>
<g><path style="opacity:0.553" fill="#545454" d="M 218.5,371.5 C 217.92,373.749 216.587,375.415 214.5,376.5C 215.08,374.251 216.413,372.585 218.5,371.5 Z"/></g>
<g><path style="opacity:1" fill="#4c4c4c" d="M 554.5,370.5 C 557.5,372.833 560.167,375.5 562.5,378.5C 558.833,376.833 556.167,374.167 554.5,370.5 Z"/></g>
<g><path style="opacity:0.565" fill="#838383" d="M 502.5,372.5 C 502.5,374.5 501.5,375.5 499.5,375.5C 500.167,374.167 501.167,373.167 502.5,372.5 Z"/></g>
<g><path style="opacity:1" fill="#545454" d="M 634.5,369.5 C 632.5,373.5 629.5,376.5 625.5,378.5C 628.167,375.167 631.167,372.167 634.5,369.5 Z"/></g>
<g><path style="opacity:0.506" fill="#5c5c5c" d="M 108.5,373.5 C 110.144,373.81 111.144,374.81 111.5,376.5C 109.856,376.19 108.856,375.19 108.5,373.5 Z"/></g>
<g><path style="opacity:0.984" fill="#404040" d="M 482.5,373.5 C 481.965,375.446 480.632,376.446 478.5,376.5C 479.436,375.026 480.77,374.026 482.5,373.5 Z"/></g>
<g><path style="opacity:0.757" fill="#5d5d5d" d="M 129.5,377.5 C 131.027,377.427 132.027,378.094 132.5,379.5C 130.973,379.573 129.973,378.906 129.5,377.5 Z"/></g>
<g><path style="opacity:1" fill="#4f4f4f" d="M 195.5,377.5 C 195.027,378.906 194.027,379.573 192.5,379.5C 192.973,378.094 193.973,377.427 195.5,377.5 Z"/></g>
<g><path style="opacity:0.631" fill="#626262" d="M 212.5,378.5 C 212.027,379.906 211.027,380.573 209.5,380.5C 209.973,379.094 210.973,378.427 212.5,378.5 Z"/></g>
<g><path style="opacity:1" fill="#3e3e3e" d="M 473.5,379.5 C 471.107,382.861 467.773,384.527 463.5,384.5C 466.768,382.866 470.101,381.199 473.5,379.5 Z"/></g>
<g><path style="opacity:0.651" fill="#606060" d="M 495.5,379.5 C 495.027,380.906 494.027,381.573 492.5,381.5C 492.973,380.094 493.973,379.427 495.5,379.5 Z"/></g>
<g><path style="opacity:0.745" fill="#474747" d="M 563.5,379.5 C 565.027,379.427 566.027,380.094 566.5,381.5C 564.973,381.573 563.973,380.906 563.5,379.5 Z"/></g>
<g><path style="opacity:0.659" fill="#565656" d="M 641.5,380.5 C 641.027,381.906 640.027,382.573 638.5,382.5C 638.973,381.094 639.973,380.427 641.5,380.5 Z"/></g>
<g><path style="opacity:0.706" fill="#686868" d="M 207.5,382.5 C 207.167,383.5 206.5,384.167 205.5,384.5C 205.5,383.167 206.167,382.5 207.5,382.5 Z"/></g>
<g><path style="opacity:0.937" fill="#414141" d="M 189.5,381.5 C 189.631,382.376 189.298,383.043 188.5,383.5C 187.313,384.653 186.313,384.653 185.5,383.5C 186.833,382.833 188.167,382.167 189.5,381.5 Z"/></g>
<g><path style="opacity:0.859" fill="#373737" d="M 138.5,383.5 C 141.918,384.639 145.251,385.972 148.5,387.5C 148.44,388.043 148.107,388.376 147.5,388.5C 144.082,387.38 141.082,385.713 138.5,383.5 Z"/></g>
<g><path style="opacity:0.927" fill="#2e2e2e" d="M 489.5,383.5 C 486.506,386 483.173,388 479.5,389.5C 482.096,386.524 485.43,384.524 489.5,383.5 Z"/></g>
<g><path style="opacity:0.855" fill="#4f4f4f" d="M 566.5,381.5 C 570.151,382.659 573.485,384.326 576.5,386.5C 573.763,385.969 571.096,385.136 568.5,384C 567.244,383.583 566.577,382.75 566.5,381.5 Z"/></g>
<g><path style="opacity:0.733" fill="#757575" d="M 85.5,384.5 C 86.1174,384.611 86.6174,384.944 87,385.5C 87.6667,388.5 87.6667,391.5 87,394.5C 86.6174,395.056 86.1174,395.389 85.5,395.5C 85.5,391.833 85.5,388.167 85.5,384.5 Z"/></g>
<g><path style="opacity:1" fill="#4d4d4d" d="M 120.5,384.5 C 122.027,384.427 123.027,385.094 123.5,386.5C 121.973,386.573 120.973,385.906 120.5,384.5 Z"/></g>
<g><path style="opacity:1" fill="#5b5b5b" d="M 455.5,385.5 C 454.462,387.519 453.128,387.853 451.5,386.5C 452.833,386.167 454.167,385.833 455.5,385.5 Z"/></g>
<g><path style="opacity:0.949" fill="#505050" d="M 553.5,385.5 C 555.027,385.427 556.027,386.094 556.5,387.5C 554.973,387.573 553.973,386.906 553.5,385.5 Z"/></g>
<g><path style="opacity:0.525" fill="#4c4c4c" d="M 637.5,383.5 C 635.853,385.326 633.853,386.66 631.5,387.5C 632.802,385.178 634.802,383.845 637.5,383.5 Z"/></g>
<g><path style="opacity:1" fill="#282828" d="M 423.5,386.5 C 431.5,386.5 439.5,386.5 447.5,386.5C 443.893,387.824 439.893,388.491 435.5,388.5C 431.107,388.491 427.107,387.824 423.5,386.5 Z"/></g>
<g><path style="opacity:0.945" fill="#323232" d="M 612.5,385.5 C 611.816,387.185 610.483,388.185 608.5,388.5C 607.893,388.376 607.56,388.043 607.5,387.5C 609.167,386.833 610.833,386.167 612.5,385.5 Z"/></g>
<g><path style="opacity:1" fill="#484848" d="M 174.5,387.5 C 174.289,389.424 173.623,389.757 172.5,388.5C 172.842,387.662 173.508,387.328 174.5,387.5 Z"/></g>
<g><path style="opacity:1" fill="#414141" d="M 359.5,388.5 C 362.767,390.427 365.767,392.761 368.5,395.5C 368.5,396.167 368.167,396.5 367.5,396.5C 364.5,394.167 361.833,391.5 359.5,388.5 Z"/></g>
<g><path style="opacity:1" fill="#4a4a4a" d="M 581.5,387.5 C 582.609,387.557 583.609,387.89 584.5,388.5C 583.053,389.885 582.053,389.552 581.5,387.5 Z"/></g>
<g><path style="opacity:0.988" fill="#555555" d="M 605.5,387.5 C 605.289,389.424 604.623,389.757 603.5,388.5C 603.842,387.662 604.508,387.328 605.5,387.5 Z"/></g>
<g><path style="opacity:0.778" fill="#474747" d="M 629.5,388.5 C 628.71,389.401 627.71,390.068 626.5,390.5C 626.821,388.952 627.821,388.285 629.5,388.5 Z"/></g>
<g><path style="opacity:1" fill="#404040" d="M 154.5,388.5 C 155.791,388.263 156.791,388.596 157.5,389.5C 156.221,390.715 155.221,390.382 154.5,388.5 Z"/></g>
<g><path style="opacity:1" fill="#484848" d="M 169.5,388.5 C 168.779,390.382 167.779,390.715 166.5,389.5C 167.209,388.596 168.209,388.263 169.5,388.5 Z"/></g>
<g><path style="opacity:0.894" fill="#565656" d="M 558.5,388.5 C 560.674,388.75 562.341,389.75 563.5,391.5C 561.326,391.25 559.659,390.25 558.5,388.5 Z"/></g>
<g><path style="opacity:1" fill="#4b4b4b" d="M 586.5,388.5 C 587.791,388.263 588.791,388.596 589.5,389.5C 588.221,390.715 587.221,390.382 586.5,388.5 Z"/></g>
<g><path style="opacity:1" fill="#4d4d4d" d="M 600.5,388.5 C 599.947,390.552 598.947,390.885 597.5,389.5C 598.209,388.596 599.209,388.263 600.5,388.5 Z"/></g>
<g><path style="opacity:0.953" fill="#343434" d="M 125.5,387.5 C 128.331,388.079 130.664,389.412 132.5,391.5C 129.669,390.921 127.336,389.588 125.5,387.5 Z"/></g>
<g><path style="opacity:0.98" fill="#444444" d="M 135.5,392.5 C 137.38,392.229 138.713,392.896 139.5,394.5C 137.847,394.34 136.514,393.674 135.5,392.5 Z"/></g>
<g><path style="opacity:0.851" fill="#3e3e3e" d="M 189.5,392.5 C 186.045,394.209 182.379,395.542 178.5,396.5C 181.413,393.635 185.079,392.301 189.5,392.5 Z"/></g>
<g><path style="opacity:0.557" fill="#575757" d="M 465.5,393.5 C 465.158,394.338 464.492,394.672 463.5,394.5C 463.711,392.576 464.377,392.243 465.5,393.5 Z"/></g>
<g><path style="opacity:1" fill="#434343" d="M 573.5,395.5 C 572.005,395.011 570.671,394.345 569.5,393.5C 570.036,392.665 570.869,392.665 572,393.5C 573.03,393.836 573.53,394.503 573.5,395.5 Z"/></g>
<g><path style="opacity:0.631" fill="#404040" d="M 617.5,393.5 C 615.064,394.871 612.397,395.871 609.5,396.5C 611.522,394.307 614.189,393.307 617.5,393.5 Z"/></g>
<g><path style="opacity:0.557" fill="#464646" d="M 574.5,395.5 C 575.947,394.115 576.947,394.448 577.5,396.5C 576.391,396.443 575.391,396.11 574.5,395.5 Z"/></g>
</svg>
