<?xml version="1.0" encoding="UTF-8"?>
<!DOCTYPE svg PUBLIC "-//W3C//DTD SVG 1.1//EN" "http://www.w3.org/Graphics/SVG/1.1/DTD/svg11.dtd">
<svg xmlns="http://www.w3.org/2000/svg" version="1.1" width="118px" height="35px" style="shape-rendering:geometricPrecision; text-rendering:geometricPrecision; image-rendering:optimizeQuality; fill-rule:evenodd; clip-rule:evenodd" xmlns:xlink="http://www.w3.org/1999/xlink">
<g><path style="opacity:0.869" fill="#272727" d="M 8.5,8.5 C 7.83333,8.5 7.16667,8.5 6.5,8.5C 5.19444,6.18379 3.86111,3.85045 2.5,1.5C 4.04533,0.548109 5.71199,0.214775 7.5,0.5C 7.66462,2.82682 8.33129,4.99348 9.5,7C 8.94404,7.38258 8.61071,7.88258 8.5,8.5 Z"/></g>
<g><path style="opacity:0.625" fill="#111111" d="M 6.5,8.5 C 7.16667,8.5 7.83333,8.5 8.5,8.5C 11.1667,8.5 13.8333,8.5 16.5,8.5C 16.5,9.5 16.5,10.5 16.5,11.5C 12.5,11.5 8.5,11.5 4.5,11.5C 4.5,13.8333 4.5,16.1667 4.5,18.5C 7.83333,18.5 11.1667,18.5 14.5,18.5C 14.5,19.5 14.5,20.5 14.5,21.5C 11.2234,21.7839 8.05675,21.4505 5,20.5C 4.33333,23.5 4.33333,26.5 5,29.5C 8.39364,28.5442 11.8936,28.2108 15.5,28.5C 15.5,29.1667 15.8333,29.5 16.5,29.5C 16.5858,30.4959 16.2524,31.3292 15.5,32C 10.5111,32.4993 5.51108,32.6659 0.5,32.5C 0.5,24.5 0.5,16.5 0.5,8.5C 2.5,8.5 4.5,8.5 6.5,8.5 Z"/></g>
<g><path style="opacity:0.72" fill="#313131" d="M 58.5,8.5 C 60.1667,8.5 61.8333,8.5 63.5,8.5C 63.3337,15.5079 63.5004,22.5079 64,29.5C 67.0731,28.3832 70.2397,28.2165 73.5,29C 74.3366,30.0113 74.67,31.1779 74.5,32.5C 69.1667,32.5 63.8333,32.5 58.5,32.5C 58.5,24.5 58.5,16.5 58.5,8.5 Z"/></g>
<g><path style="opacity:0.697" fill="#0b0b0b" d="M 96.5,11.5 C 96.5,10.5 96.5,9.5 96.5,8.5C 103.167,8.5 109.833,8.5 116.5,8.5C 116.5,9.5 116.5,10.5 116.5,11.5C 114.167,11.5 111.833,11.5 109.5,11.5C 109.5,18.5 109.5,25.5 109.5,32.5C 108.167,32.5 106.833,32.5 105.5,32.5C 105.5,25.5 105.5,18.5 105.5,11.5C 102.5,11.5 99.5,11.5 96.5,11.5 Z"/></g>
<g><path style="opacity:1" fill="#232323" d="M 96.5,11.5 C 101.261,18.9133 100.261,25.4133 93.5,31C 79.7115,34.8613 73.5449,29.6946 75,15.5C 80.8946,7.06594 88.0613,5.73261 96.5,11.5 Z M 85.5,10.5 C 94.0019,12.1623 96.8352,17.1623 94,25.5C 91.3981,29.2118 87.8981,30.3785 83.5,29C 78.4466,25.217 77.2799,20.3837 80,14.5C 81.4998,12.5313 83.3331,11.198 85.5,10.5 Z"/></g>
<g><path style="opacity:1" fill="#242424" d="M 16.5,29.5 C 15.8333,29.5 15.5,29.1667 15.5,28.5C 15.5,27.5 15.5,26.5 15.5,25.5C 18.1142,25.2771 19.7809,26.4438 20.5,29C 22.8333,29.6667 25.1667,29.6667 27.5,29C 30.0443,27.2252 30.0443,25.3918 27.5,23.5C 23.4927,22.3361 19.9927,20.3361 17,17.5C 16.5045,15.5273 16.3379,13.5273 16.5,11.5C 22.6008,5.97727 27.9341,6.64394 32.5,13.5C 31.3112,14.4287 29.9778,14.762 28.5,14.5C 28.5228,11.8787 27.1895,10.5454 24.5,10.5C 19.8794,10.8791 18.8794,12.7125 21.5,16C 25.232,17.4607 28.732,19.2941 32,21.5C 34.5234,28.4335 32.0234,32.1001 24.5,32.5C 21.3764,32.6004 18.7097,31.6004 16.5,29.5 Z"/></g>
<g><path style="opacity:0.954" fill="#252525" d="M 45.5,7.5 C 50.4501,7.30424 54.1168,9.30424 56.5,13.5C 56,13.8333 55.5,14.1667 55,14.5C 48.8284,8.78421 43.4951,9.45088 39,16.5C 37.5525,26.3859 41.7191,30.5526 51.5,29C 53.0548,27.7107 54.7215,27.044 56.5,27C 56.8333,27.3333 57.1667,27.6667 57.5,28C 50.2337,34.1215 43.067,33.9549 36,27.5C 31.4371,17.0241 34.6037,10.3575 45.5,7.5 Z"/></g>
</svg>
